<svg width="220" height="220" viewBox="0 0 220 220" fill="none" xmlns="http://www.w3.org/2000/svg">
<g clip-path="url(#clip0_2_202)">
<path d="M200 0H20C8.9543 0 0 8.9543 0 20V200C0 211.046 8.9543 220 20 220H200C211.046 220 220 211.046 220 200V20C220 8.9543 211.046 0 200 0Z" fill="#00CF6A"/>
<mask id="mask0_2_202" style="mask-type:luminance" maskUnits="userSpaceOnUse" x="46" y="50" width="92" height="120">
<path d="M128 50H56C50.4772 50 46 54.4772 46 60V160C46 165.523 50.4772 170 56 170H128C133.523 170 138 165.523 138 160V60C138 54.4772 133.523 50 128 50Z" fill="white"/>
</mask>
<g mask="url(#mask0_2_202)">
<path d="M128 50H56C50.4772 50 46 54.4772 46 60V160C46 165.523 50.4772 170 56 170H128C133.523 170 138 165.523 138 160V60C138 54.4772 133.523 50 128 50Z" stroke="white" stroke-width="30"/>
</g>
<path d="M156 61C156 58.2386 153.761 56 151 56C148.239 56 146 58.2386 146 61V159C146 161.761 148.239 164 151 164C153.761 164 156 161.761 156 159V61Z" fill="white"/>
<path d="M174 61C174 58.2386 171.761 56 169 56C166.239 56 164 58.2386 164 61V159C164 161.761 166.239 164 169 164C171.761 164 174 161.761 174 159V61Z" fill="white"/>
</g>
<defs>
<clipPath id="clip0_2_202">
<rect width="220" height="220" fill="white"/>
</clipPath>
</defs>
</svg>
