<svg width="341" height="396" viewBox="0 0 341 396" fill="none" xmlns="http://www.w3.org/2000/svg">
<path d="M12.8901 40.8206C3.62111 35.8606 0.128104 24.3266 5.0881 15.0576C10.0481 5.78861 21.5821 2.2956 30.8511 7.2556C38.0061 11.0846 41.6991 18.8316 40.7381 26.4296L44.4911 30.7426L38.7881 32.7326C38.7401 32.8266 38.7041 32.9246 38.6531 33.0186C33.6941 42.2876 22.1591 45.7806 12.8901 40.8206Z" fill="#1F76F1"/>
<path d="M0.772095 27.4057C0.792095 27.4057 0.812099 27.4037 0.833099 27.3987C0.967099 27.3647 1.04911 27.2297 1.01511 27.0957C-0.458894 21.1967 1.28909 14.5307 5.46909 10.1127C5.56409 10.0117 5.56011 9.85366 5.45911 9.75866C5.35711 9.66366 5.1991 9.66866 5.1051 9.76866C0.811102 14.3077 -0.98491 21.1557 0.53009 27.2167C0.55809 27.3307 0.660095 27.4057 0.772095 27.4057Z" fill="#1F76F1"/>
<path d="M2.59109 32.7496C2.63909 32.7496 2.68709 32.7366 2.72909 32.7076C2.84409 32.6316 2.8761 32.4766 2.8001 32.3616C2.3011 31.6056 1.95709 30.7346 1.80309 29.8426C1.78109 29.7066 1.6491 29.6156 1.5151 29.6386C1.3781 29.6616 1.28709 29.7916 1.31109 29.9276C1.47609 30.8866 1.8461 31.8236 2.3821 32.6366C2.4301 32.7096 2.51009 32.7486 2.59109 32.7486V32.7496Z" fill="#1F76F1"/>
<path d="M21.7131 31.7276L12.9891 25.2306L15.2561 22.1866L21.1061 26.5426L29.1431 16.9536L32.0521 19.3926L21.7131 31.7276Z" fill="white"/>
<path d="M211.145 60.867V58.9549L248.233 41L289.117 58.9549V60.867H211.145Z" fill="#263238"/>
<path opacity="0.2" d="M211.145 60.867V58.9549L248.233 41L289.117 58.9549V60.867H211.145Z" fill="white"/>
<path d="M211.145 60.867C211.145 60.867 251.734 75.4513 251.945 75.1784C252.156 74.9055 289.679 60.867 289.679 60.867L248.351 42.7278L211.145 60.867Z" fill="#263238"/>
<path d="M226.635 69.135C226.579 67.7198 226.365 65.8603 226.138 63.891C225.496 58.3013 224.768 51.9656 226.78 49.9936C227.22 49.5631 228.196 48.8725 229.045 49.0145C229.345 49.0643 229.76 49.2413 230.04 49.8009L229.422 50.1107C229.259 49.7852 229.064 49.7189 228.931 49.6967C228.393 49.5972 227.625 50.1337 227.263 50.4878C225.493 52.222 226.232 58.6488 226.825 63.8117C227.053 65.7939 227.268 67.6673 227.325 69.1074L226.635 69.135Z" fill="#0AA643"/>
<path d="M228.167 69.9214C228.087 70.5207 227.537 70.943 226.937 70.8637C226.338 70.7844 225.915 70.234 225.995 69.6338C226.074 69.0345 226.624 68.6123 227.225 68.6916C227.824 68.7709 228.246 69.3213 228.167 69.9214Z" fill="#0AA643"/>
<path d="M226.872 69.9352C225.868 70.9199 225.696 72.4595 225.678 73.8655C225.659 75.2715 225.715 76.7632 225.01 77.9801C224.804 78.3351 224.532 78.6744 224.485 79.0819C224.437 79.4894 224.765 79.9725 225.165 79.883C225.715 79.0819 226.102 78.1673 226.293 77.214C226.383 78.5278 226.33 79.8508 226.138 81.1535C226.745 81.3222 227.368 81.4918 227.998 81.4448C228.627 81.3978 229.275 81.0899 229.555 80.5247C229.711 80.2103 229.741 79.8489 229.758 79.4986C229.92 76.0745 229.073 72.6089 227.349 69.6458" fill="#0AA643"/>
<path d="M172.566 84.396C179.362 78.478 185.712 74.6455 186.749 75.8375C187.787 77.0287 184.809 83.3984 177.861 90.0945C171.372 96.348 164.213 100.422 163.175 99.2301C162.137 98.0389 165.77 90.3148 172.566 84.396Z" fill="#0AA643"/>
<path d="M180.778 59.9985C183.842 59.8464 186.27 65.7256 185.705 67.2994C185.23 68.6196 184.821 72.3332 183.778 73.7816C182.736 75.23 176.09 78.2539 176.09 78.2539C176.09 78.2539 169.737 72.5425 168.969 69.9528C168.2 67.363 167.269 63.9481 168.046 62.8943C168.823 61.8415 169.745 62.3873 170.373 61.8774C171.001 61.3676 171.202 60.0004 173.377 60.3848C173.377 60.3848 174.846 57.6577 176.808 58.6811C178.485 57.5388 179.675 58.1085 180.778 59.9985Z" fill="#CE9163"/>
<path d="M177.928 69.1581C177.851 69.1581 177.773 69.1507 177.696 69.1369C177.255 69.0548 176.855 68.7478 176.472 68.2002C175.954 67.4571 175.614 66.619 175.286 65.8077L173.66 61.7926C173.612 61.6746 173.669 61.541 173.787 61.4921C173.903 61.4451 174.038 61.5013 174.087 61.6193L175.714 65.6344C176.032 66.4217 176.362 67.2358 176.85 67.9365C177.159 68.3799 177.464 68.6252 177.781 68.6842C178.246 68.7708 178.705 68.438 178.921 68.0637C179.136 67.6922 179.22 67.2183 179.187 66.5729C179.06 64.1833 178.022 61.8682 177.106 59.8261C177.053 59.71 177.106 59.5735 177.221 59.521C177.336 59.4666 177.474 59.521 177.526 59.6362C178.413 61.6129 179.517 64.0726 179.647 66.548C179.685 67.2865 179.581 67.8406 179.32 68.2933C179.013 68.8262 178.464 69.1581 177.928 69.1581Z" fill="#B26836"/>
<path d="M174.77 69.075C174.582 69.075 174.402 69.0464 174.238 68.9837C173.471 68.6924 172.934 68.0314 172.511 67.4247C171.76 66.347 171.146 65.1779 170.686 63.9508C170.641 63.8319 170.702 63.6992 170.821 63.654C170.941 63.6088 171.073 63.6696 171.118 63.7886C171.564 64.9797 172.16 66.1146 172.889 67.1611C173.272 67.7115 173.752 68.3061 174.402 68.5532C174.977 68.7745 175.958 68.3716 176.21 67.8138C176.262 67.6976 176.4 67.6469 176.515 67.6985C176.631 67.7511 176.683 67.8875 176.63 68.0037C176.348 68.6288 175.509 69.0759 174.771 69.0759L174.77 69.075Z" fill="#B26836"/>
<path d="M172.296 69.9251C171.975 69.9251 171.629 69.8523 171.261 69.7066C170.196 69.2853 169.326 68.4408 168.875 67.3898C168.824 67.2736 168.878 67.1372 168.995 67.0874C169.111 67.0358 169.248 67.0902 169.298 67.2082C169.702 68.1467 170.48 68.9009 171.43 69.2779C171.885 69.4577 172.287 69.5075 172.629 69.4273C172.942 69.3535 173.346 68.746 173.419 68.3458C173.442 68.2205 173.562 68.1403 173.687 68.1605C173.813 68.1836 173.896 68.3034 173.873 68.4288C173.78 68.9313 173.291 69.7454 172.734 69.8763C172.595 69.9095 172.448 69.9251 172.296 69.9251Z" fill="#B26836"/>
<path d="M176.09 78.254L180.782 95.6327L192.743 89.8807L184.241 73.0469L176.09 78.254Z" fill="#CE9163"/>
<path d="M180.558 60.1996C180.357 60.3204 174.278 64.967 174.278 64.967C174.278 64.967 173.628 66.8892 176.65 66.7279C179.672 66.5665 181.244 65.3579 181.244 65.3579C181.244 65.3579 177.818 71.7257 179.955 73.2977C182.091 74.8696 183.702 71.8059 183.702 71.8059C183.702 71.8059 185.274 65.4786 185.234 65.5994" fill="#CE9163"/>
<path d="M179.544 72.5712C179.428 72.5712 179.328 72.4827 179.316 72.3637C179.144 70.6932 179.448 68.2233 180.724 65.9534C179.501 66.6394 177.202 67.6618 175.385 66.9123C174.546 66.5675 174.098 66.1295 174.051 65.6123C173.978 64.7992 174.952 64.1621 174.994 64.1354L180.198 60.1775C180.299 60.1009 180.444 60.1203 180.522 60.2217C180.598 60.3231 180.579 60.4679 180.477 60.5453L175.258 64.5143C175.026 64.6655 174.47 65.1283 174.511 65.5727C174.549 65.9876 175.102 66.2992 175.56 66.4882C177.876 67.4405 181.278 65.0739 181.312 65.0509C181.403 64.9863 181.527 64.9955 181.607 65.0758C181.686 65.1541 181.697 65.2786 181.633 65.3708C179.98 67.7522 179.598 70.6019 179.774 72.3186C179.787 72.4449 179.696 72.5583 179.568 72.5712H179.544Z" fill="#B26836"/>
<path d="M258.354 380.952L248.833 382.17L241.411 361.867L253.967 358.242L258.354 380.952Z" fill="#CE9163"/>
<path d="M247.914 380.551L250.935 379.77C251.618 379.593 252.34 379.775 252.887 380.221C255.245 382.15 256.321 380.912 257.638 378.184C258.806 377.732 259.488 379.03 259.683 379.377L264.067 387.008C264.441 387.643 264.229 388.461 263.593 388.835C263.481 388.901 263.358 388.951 263.231 388.982C259.563 389.931 257.827 390.38 253.26 391.562L239.296 395.176C235.489 396.162 233.707 392.529 235.183 391.768C241.831 388.385 246.287 385.017 247.936 382.403C248.247 381.939 247.763 381.778 247.914 380.551Z" fill="#263238"/>
<path d="M244.134 384.517C245.082 384.247 245.999 383.88 246.87 383.419C246.95 383.366 246.97 383.258 246.915 383.179C246.886 383.136 246.84 383.109 246.788 383.104C246.311 383.006 242.076 382.219 241.304 383.135C241.156 383.296 241.114 383.527 241.195 383.731C241.301 384.121 241.586 384.438 241.963 384.585C242.675 384.794 243.436 384.77 244.134 384.517ZM246.219 383.346C245.158 383.841 243.159 384.653 242.135 384.234C241.868 384.117 241.663 383.891 241.574 383.611C241.533 383.527 241.549 383.427 241.613 383.359C242.041 382.859 244.472 383.061 246.218 383.346H246.219Z" fill="#0AA643"/>
<path d="M246.833 383.439C246.875 383.441 246.916 383.43 246.951 383.409C246.99 383.351 246.992 383.277 246.955 383.219C246.915 383.061 245.064 379.572 243.054 380.345C242.559 380.547 242.475 380.832 242.509 381.044C242.637 382.063 245.496 383.312 246.752 383.492L246.833 383.439ZM243.338 380.586C244.65 380.247 245.97 382.22 246.452 383.021C245.05 382.689 242.923 381.588 242.876 380.958C242.863 380.908 242.828 380.771 243.203 380.632L243.338 380.586Z" fill="#0AA643"/>
<path d="M249.414 384.645C249.357 384.645 249.301 384.625 249.256 384.582C248.512 383.881 247.459 383.537 246.448 383.655C246.32 383.665 246.206 383.579 246.193 383.453C246.177 383.326 246.268 383.211 246.395 383.197C247.544 383.061 248.732 383.455 249.573 384.247C249.666 384.335 249.669 384.481 249.583 384.573C249.537 384.622 249.476 384.646 249.415 384.646L249.414 384.645Z" fill="#0AA643"/>
<path d="M247.902 386.543C247.845 386.543 247.789 386.523 247.744 386.48C247 385.78 245.945 385.436 244.936 385.553C244.811 385.565 244.694 385.477 244.681 385.351C244.665 385.225 244.756 385.11 244.883 385.096C246.033 384.957 247.22 385.352 248.061 386.146C248.155 386.233 248.158 386.379 248.072 386.471C248.026 386.52 247.965 386.544 247.904 386.544L247.902 386.543Z" fill="#0AA643"/>
<path d="M245.873 388.337C245.816 388.337 245.759 388.317 245.715 388.274C244.971 387.574 243.917 387.227 242.907 387.346C242.778 387.355 242.666 387.271 242.651 387.144C242.636 387.018 242.727 386.903 242.853 386.889C244.005 386.753 245.191 387.145 246.031 387.94C246.124 388.027 246.128 388.173 246.041 388.266C245.996 388.314 245.935 388.338 245.874 388.338L245.873 388.337Z" fill="#0AA643"/>
<path d="M322.449 355.368L313.862 359.657L300.16 342.938L310.817 335.374L322.449 355.368Z" fill="#CE9163"/>
<path d="M312.461 358.432L315.055 356.698C315.643 356.305 316.384 356.24 317.048 356.481C319.91 357.524 320.518 356 320.861 352.992C321.815 352.18 322.886 353.181 323.184 353.444L329.84 359.201C330.402 359.678 330.471 360.52 329.996 361.082C329.911 361.181 329.812 361.269 329.702 361.34C326.551 363.447 325.06 364.443 321.139 367.064L309.148 375.082C305.879 377.268 302.999 374.426 304.142 373.221C309.302 367.835 312.398 363.186 313.092 360.174C313.233 359.634 312.722 359.641 312.46 358.433L312.461 358.432Z" fill="#263238"/>
<path d="M310.2 363.422C311.006 362.855 311.75 362.205 312.421 361.484C312.479 361.407 312.462 361.298 312.385 361.241C312.344 361.211 312.291 361.2 312.241 361.213C311.758 361.278 307.501 361.931 307.073 363.051C306.987 363.252 307.023 363.484 307.167 363.649C307.396 363.983 307.769 364.188 308.174 364.202C308.915 364.165 309.625 363.891 310.2 363.422ZM311.783 361.628C310.945 362.446 309.326 363.873 308.221 363.814C307.93 363.791 307.661 363.645 307.485 363.412C307.419 363.345 307.401 363.246 307.44 363.16C307.68 362.547 310.041 361.935 311.783 361.628Z" fill="#0AA643"/>
<path d="M312.393 361.515C312.433 361.503 312.468 361.479 312.494 361.447C312.513 361.38 312.489 361.309 312.435 361.266C312.345 361.131 309.448 358.448 307.805 359.84C307.404 360.194 307.419 360.49 307.521 360.679C307.978 361.599 311.088 361.835 312.334 361.591L312.393 361.514V361.515ZM308.153 359.975C309.279 359.222 311.177 360.649 311.895 361.248C310.462 361.397 308.092 361.058 307.839 360.479C307.811 360.436 307.732 360.317 308.039 360.063L308.152 359.975H308.153Z" fill="#0AA643"/>
<path d="M311.998 361.869C311.913 361.869 311.83 361.821 311.791 361.739C311.735 361.625 311.783 361.487 311.897 361.431C312.936 360.923 314.186 360.902 315.244 361.374C315.36 361.427 315.412 361.562 315.361 361.678C315.308 361.795 315.173 361.846 315.056 361.795C314.121 361.379 313.017 361.397 312.099 361.846C312.067 361.863 312.032 361.869 311.998 361.869Z" fill="#0AA643"/>
<path d="M311.197 364.16C311.111 364.16 311.029 364.112 310.99 364.03C310.933 363.916 310.981 363.778 311.096 363.722C312.135 363.215 313.386 363.192 314.442 363.665C314.559 363.718 314.611 363.853 314.559 363.969C314.507 364.087 314.372 364.138 314.255 364.086C313.323 363.671 312.217 363.688 311.298 364.137C311.265 364.154 311.231 364.16 311.197 364.16Z" fill="#0AA643"/>
<path d="M309.874 366.521C309.788 366.521 309.706 366.473 309.667 366.391C309.61 366.277 309.658 366.14 309.773 366.083C310.812 365.575 312.062 365.555 313.119 366.026C313.236 366.079 313.288 366.214 313.236 366.33C313.184 366.447 313.048 366.498 312.932 366.448C311.997 366.031 310.893 366.049 309.975 366.498C309.942 366.515 309.908 366.521 309.874 366.521Z" fill="#0AA643"/>
<path d="M230.594 171.63C230.594 171.63 211.386 232.304 217.059 276.691C220.853 306.408 240.909 368.537 240.909 368.537L258.593 368.089C258.593 368.089 244.267 304.976 242.789 280.335C240.256 238.194 261.126 171.562 261.126 171.562L230.595 171.631L230.594 171.63Z" fill="#0AA643"/>
<path d="M239.649 171.734C239.649 171.734 242.342 238.01 257.115 275.304C269.034 305.434 303.886 349.798 303.886 349.798L316.724 342.241C316.724 342.241 292.413 293.606 283.36 273.504C261.149 224.224 285.561 190.048 272.186 171.504L239.649 171.734Z" fill="#0AA643"/>
<path opacity="0.3" d="M224.44 311.886C226.056 318.166 227.775 324.493 229.471 330.532C234.468 329.146 241.574 327.094 249.459 324.516C248.119 317.548 246.823 310.43 245.723 303.761L224.441 311.887L224.44 311.886Z" fill="black"/>
<path opacity="0.3" d="M293.69 295.35L272.023 303.838C275.461 309.89 279.366 315.471 283.181 321.229C290.516 317.882 296.401 314.641 301.191 310.836L293.689 295.35H293.69Z" fill="black"/>
<path d="M223.398 111.508C223.857 121.097 219.463 140.777 217.313 194.33C216.102 224.48 209.069 264.084 213.321 316.118C240.348 329.057 312.192 306.565 321.404 298.239C320.609 282.359 278.794 174.017 286.952 115.774C287.473 112.082 285.089 108.586 280.906 108.046C277.375 107.586 272.971 107.126 268.527 106.896C261.373 106.446 254.193 106.446 247.04 106.896C241.671 107.344 230.377 105.903 226.389 106.559C222.959 107.027 223.363 108.446 223.398 111.51V111.508Z" fill="#263238"/>
<path opacity="0.3" d="M231.684 132.575C231.684 132.575 239.87 149.951 251.753 146.781C263.636 143.613 272.079 116.736 272.079 116.736L231.684 132.575Z" fill="black"/>
<path opacity="0.3" d="M256.04 235.26C255.633 237.069 270.113 309.552 272.024 311.529C273.934 313.505 289.802 308.315 288.989 306.506C288.176 304.697 256.04 235.261 256.04 235.261V235.26Z" fill="black"/>
<path d="M247.836 62.1494C247.836 62.1494 239.046 77.9903 238.63 82.9172C235.265 85.7826 232.873 79.9734 233 72.1876C233.103 65.8151 236.426 58.9383 241.933 56.4619C249.669 52.9834 247.836 62.1494 247.836 62.1494Z" fill="#0AA643"/>
<path d="M249.489 107.943C250.962 106.473 250.61 104.704 250.33 102.564C250.137 100.918 249.606 99.2079 248.973 97.5429L251.17 95.155L262.597 84.4301C262.052 91.848 261.144 104.589 266.804 108.832L242.918 124.017L245.127 109.485C245.127 109.485 247.328 109.155 249.489 107.943Z" fill="#CE9163"/>
<path opacity="0.2" d="M250.398 103.201C253.494 101.511 256.934 98.5099 256.665 94.9291C256.541 93.4208 256.269 91.9862 255.943 91.0615L249.49 98.9912C249.947 100.323 250.101 101.199 250.399 103.202L250.398 103.201Z" fill="black"/>
<path d="M266.15 72.6089C264.702 83.8972 264.327 88.6931 258.267 94.4193C249.152 103.033 235.736 99.538 233.815 88.2266C232.085 78.0465 234.744 61.2966 246.036 56.9404C257.16 52.6488 267.598 61.3206 266.15 72.6089Z" fill="#CE9163"/>
<path d="M250.789 76.588C250.78 77.651 250.17 78.5527 249.426 78.6034C248.683 78.6541 248.087 77.8336 248.096 76.7715C248.105 75.7085 248.715 74.8059 249.458 74.7561C250.201 74.7054 250.797 75.526 250.789 76.588H250.789Z" fill="#263238"/>
<path d="M240.013 75.7618C240.063 76.7898 239.506 77.7007 238.769 77.7956C238.032 77.8906 237.394 77.1328 237.344 76.1039C237.294 75.0759 237.851 74.165 238.587 74.0701C239.325 73.9751 239.963 74.7329 240.013 75.7618Z" fill="#263238"/>
<path d="M253.804 72.9397C253.659 72.949 253.515 72.9001 253.408 72.7922C251.738 71.0968 249.748 71.5734 249.725 71.579C249.43 71.6499 249.143 71.472 249.089 71.1724C249.038 70.8727 249.237 70.5694 249.536 70.4938C249.64 70.468 252.137 69.8678 254.209 71.9726C254.415 72.1828 254.403 72.5369 254.182 72.7637C254.075 72.8724 253.94 72.9324 253.803 72.9407L253.804 72.9397Z" fill="#263238"/>
<path d="M236.251 70.6211C236.12 70.5777 236.009 70.4883 235.946 70.3602C235.816 70.0956 235.943 69.7701 236.228 69.6327C239.087 68.2535 241.315 69.4493 241.409 69.5018C241.673 69.6484 241.751 69.9766 241.582 70.2357C241.414 70.4948 241.064 70.587 240.799 70.4422C240.713 70.3943 238.97 69.4917 236.698 70.5888C236.551 70.6598 236.39 70.6672 236.251 70.6211Z" fill="#263238"/>
<path d="M269.242 81.9638C267.821 84.2383 265.593 85.6184 263.582 86.0453C260.557 86.6888 259.184 81.8126 260.316 78.8458C261.336 76.1759 264.346 74.4924 267.242 75.1875C270.096 75.8725 270.868 79.3639 269.242 81.9638Z" fill="#CE9163"/>
<path d="M243.237 74.8823C243.237 74.8823 241.311 79.0578 239.216 81.6282C238.85 82.0772 239.042 82.7594 239.578 82.9788C240.958 83.544 242.611 83.1383 242.611 83.1383L243.236 74.8823H243.237Z" fill="#B26836"/>
<path d="M249.685 74.7192L247.057 74.2278C247.057 74.2278 248.569 76.0984 249.685 74.7192Z" fill="#263238"/>
<path d="M238.968 74.0839L236.317 73.7493C237.607 75.1645 238.635 74.5495 238.968 74.0839Z" fill="#263238"/>
<path opacity="0.2" d="M264.262 83.1863C264.158 83.1863 264.063 83.1153 264.038 83.0093C264.008 82.8858 264.085 82.7613 264.209 82.7318C265.854 82.3409 266.596 81.4945 266.93 80.8547C267.3 80.1448 267.272 79.493 267.136 79.1519C266.861 78.4604 265.982 77.9073 265.161 78.2226C265.042 78.2677 264.909 78.2087 264.863 78.0898C264.818 77.9709 264.877 77.8381 264.996 77.792C266.082 77.3753 267.202 78.0695 267.564 78.9813C267.744 79.434 267.779 80.2204 267.338 81.0677C266.96 81.7933 266.13 82.7484 264.315 83.1808C264.298 83.1854 264.279 83.1863 264.262 83.1863Z" fill="black"/>
<path d="M241.571 86.8373C242.421 88.0865 243.463 90.5195 243.463 90.5195C243.7 90.4651 243.938 90.4107 244.172 90.3434C247.374 89.5211 248.588 88.0819 248.962 86.7359C249.164 85.9983 249.106 85.2829 248.984 84.7177C248.851 84.0632 248.606 83.6271 248.606 83.6271C247.169 85.0773 244.243 86.073 242.658 86.5395C241.996 86.7414 241.571 86.8373 241.571 86.8373Z" fill="#263238"/>
<path d="M242.658 86.5404L243.243 87.6117C246.257 86.8298 248.274 85.8756 248.984 84.7186C248.851 84.064 248.606 83.6279 248.606 83.6279C247.169 85.0781 244.243 86.0738 242.658 86.5404Z" fill="white"/>
<path d="M244.172 90.3444C247.374 89.522 248.588 88.0829 248.962 86.7368C247.882 87.0586 246.615 87.5675 245.588 88.3539C244.8 88.9522 244.392 89.6686 244.172 90.3444Z" fill="#FB504E"/>
<path d="M237.184 60.3018C239.58 55.3206 249.342 50.6924 260.566 55.5022C270.705 59.8326 269.28 88.3262 264.262 82.9559C262.897 81.4955 261.747 80.0471 260.778 78.6532C254.954 70.2764 246.82 63.7748 237.221 60.3157L237.184 60.3018Z" fill="#0AA643"/>
<path d="M274.816 106.591C274.816 106.591 270.082 101.198 270.082 99.4412C270.082 84.9639 271.839 72.5582 270.445 64.9549C268.766 55.7972 252.363 47.3531 237.38 56.9727C236.684 57.4198 229.425 66.0373 230.721 79.5419C231.074 83.2242 231.213 86.8483 231.229 90.1719C231.272 99.2208 218.269 107.715 226.726 106.556C226.726 106.556 226.802 138.636 240.838 140.66C243.313 141.017 249.426 141.279 251.882 140.805C261.142 139.018 271.987 123.296 274.817 106.591H274.816ZM247.058 98.4971C230.472 99.0512 234.097 74.1873 234.097 74.1873C234.428 73.0053 234.502 60.3461 246.811 58.8452C252.624 58.1362 256.403 61.4211 258.773 65.0849C261.604 69.4632 262.53 74.7911 261.677 79.9347C260.478 87.1553 257.017 98.1652 247.058 98.4971Z" fill="#0AA643"/>
<g opacity="0.2">
<path d="M262.32 112.221C260.573 117.72 256.354 122.613 250.869 124.399C245.383 126.185 238.484 123.936 236.171 118.651C242.604 122.292 251.249 120.287 256.539 115.122C261.827 109.958 264.091 102.291 264.104 94.8987C264.104 94.8987 266.508 99.0456 262.321 112.222L262.32 112.221Z" fill="black"/>
</g>
<path opacity="0.2" d="M233.761 97.1307C234.145 97.6747 236.833 108.796 249.809 104.223C249.809 104.223 238.679 116.736 234.146 97.6747" fill="black"/>
<path opacity="0.2" d="M261.677 79.9347C261.567 80.3357 261.677 68.5496 261.677 68.5496C262.319 69.667 262.775 75.9325 261.677 79.9347Z" fill="black"/>
<path opacity="0.2" d="M266.905 102.533C266.795 102.934 266.905 91.1482 266.905 91.1482C267.548 92.2656 268.003 98.5311 266.905 102.533Z" fill="black"/>
<path d="M331.751 126.868C337.149 132.266 340.619 137.548 339.502 138.665C338.384 139.783 333.103 136.313 327.705 130.915C322.307 125.517 318.836 120.235 319.954 119.117C321.071 118 326.353 121.47 331.751 126.868Z" fill="#0AA643"/>
<path d="M328.227 101.935C328.227 101.935 328.538 100.624 327.669 100.807C326.799 100.99 326.433 101.127 326.25 102.775C326.067 104.422 325.197 107.58 324.328 108.724C323.458 109.868 322.36 110.189 322.223 112.751C322.085 115.314 321.994 119.616 321.994 119.616L322.314 122.545C322.314 122.545 328.538 126.938 328.538 126.802C328.538 126.665 335.86 119.434 336.044 117.969C336.227 116.505 336.593 114.261 335.449 113.301C335.449 113.301 335.815 111.928 335.312 109.868C334.808 107.809 334.625 107.992 334.625 107.992C334.625 107.992 337.092 106.482 336.247 104.926C335.403 103.37 333.657 103.102 333.657 103.102L328.227 101.935Z" fill="#CE9163"/>
<path d="M335.663 63.2502L325.599 115.606L331.14 116.737L340.864 64.0422C340.864 64.0422 339.281 62.4583 335.663 63.2502Z" fill="#0AA643"/>
<path opacity="0.7" d="M335.663 63.2502L325.599 115.606L331.14 116.737L340.864 64.0422C340.864 64.0422 339.281 62.4583 335.663 63.2502Z" fill="white"/>
<path d="M330.626 89.4537C330.626 89.4537 332.466 92.9129 335.831 91.3198L336.619 87.0484C336.619 87.0484 332.191 87.3867 331.496 84.9307L330.626 89.4537Z" fill="#0AA643"/>
<path d="M334.414 103.419C334.399 103.506 330.634 103.318 331.05 105.343C331.467 107.368 335.278 106.535 335.278 106.535" fill="#CE9163"/>
<path d="M334.625 107.991C334.625 107.991 334.297 107.398 333.403 107.576C332.51 107.755 327.042 110.658 326.673 111.298C326.304 111.938 325.958 113.025 326.673 113.353L327.298 113.532C327.298 113.532 325.065 114.455 325.095 115.379C325.124 116.302 326.167 117.076 327.566 116.422C327.566 116.422 326.346 117.077 326.733 118.089C327.12 119.102 327.626 119.191 328.639 118.804C329.651 118.417 331.765 118.238 331.765 118.238L333.075 119.488" fill="#CE9163"/>
<path d="M327.382 113.677C327.296 113.677 327.213 113.629 327.174 113.546C327.118 113.431 327.167 113.293 327.282 113.239L330.493 111.704C330.929 111.496 331.422 111.261 331.966 111.25C332.497 111.254 333.153 111.506 333.349 112.117C333.387 112.239 333.321 112.368 333.199 112.407C333.08 112.444 332.949 112.378 332.91 112.257C332.793 111.888 332.353 111.722 331.975 111.71C331.531 111.718 331.085 111.931 330.692 112.119L327.481 113.654C327.449 113.67 327.415 113.676 327.382 113.676V113.677Z" fill="#B26836"/>
<path d="M332.84 119.718C332.775 119.718 332.711 119.691 332.666 119.637L331.672 118.481L329.89 118.719C329.642 118.799 327.12 119.546 326.6 118.36C326.182 117.407 326.772 116.656 327.142 116.391C327.167 116.373 327.197 116.361 327.227 116.353C327.785 116.23 328.336 116.002 328.868 115.782C329.587 115.484 330.331 115.176 331.133 115.101C331.989 115.023 332.859 115.22 333.594 115.659C333.704 115.725 333.739 115.867 333.674 115.975C333.609 116.085 333.465 116.119 333.358 116.056C332.706 115.667 331.927 115.493 331.177 115.561C330.444 115.628 329.764 115.909 329.045 116.208C328.51 116.429 327.956 116.659 327.377 116.792C327.232 116.912 326.693 117.425 327.021 118.174C327.323 118.864 329.169 118.465 329.792 118.271L331.734 118.008C331.808 117.994 331.888 118.028 331.94 118.086L333.015 119.336C333.098 119.433 333.087 119.578 332.991 119.661C332.948 119.699 332.893 119.718 332.84 119.718Z" fill="#B26836"/>
<path d="M280.076 107.986C280.076 107.986 284.263 106.645 290.889 117.311C297.516 127.977 306.942 135.629 306.942 135.629L320.43 118.384L339.749 138.418C339.749 138.418 323.673 163.913 311.583 163.319C299.493 162.725 284.362 144.519 284.362 144.519L280.076 107.986Z" fill="#263238"/>
<path opacity="0.3" d="M286.498 146.924C285.879 145.277 284.35 127.599 284.35 128.892C284.35 130.184 291.078 151.549 291.078 151.549L286.497 146.924H286.498Z" fill="black"/>
<path d="M186.872 75.7684L200.132 106.557C200.132 106.557 215.798 106.552 225.83 106.557L224.515 137.796C224.515 137.796 193.814 141.186 182.622 131.898C171.429 122.612 163.176 99.2292 163.176 99.2292L186.872 75.7684Z" fill="#263238"/>
<path opacity="0.3" d="M221.101 138.084L222.552 116.919L214.504 138.4L221.101 138.084Z" fill="black"/>
<path opacity="0.3" d="M200.132 106.557C200.132 106.557 200.732 113.955 199.491 121.214C199.491 121.214 202.929 115.015 201.878 106.556L200.132 106.557Z" fill="black"/>
<path d="M230.614 72.9214C230.452 73.3399 230.539 60.0169 230.539 60.0169C230.539 60.0169 229.165 51.6014 248.371 50.366C248.371 50.366 270.384 50.2931 271.079 62.236V73.7502C271.079 73.7502 238.678 51.9858 230.614 72.9214Z" fill="#263238"/>
<path opacity="0.2" d="M230.614 72.9214C230.452 73.3399 230.539 60.0169 230.539 60.0169C230.539 60.0169 229.165 51.6014 248.371 50.366C248.371 50.366 270.384 50.2931 271.079 62.236V73.7502C271.079 73.7502 238.678 51.9858 230.614 72.9214Z" fill="white"/>
<path d="M303.598 8.95386C311.2 1.15586 323.684 0.996866 331.482 8.59887C339.28 16.2009 339.439 28.6849 331.837 36.4829C325.968 42.5029 317.197 43.9499 309.911 40.8079L304.54 43.3029L304.199 37.0549C304.119 36.9799 304.033 36.9159 303.954 36.8389C296.156 29.2369 295.997 16.7529 303.599 8.95486L303.598 8.95386Z" fill="#1F76F1"/>
<path d="M330.296 4.46682C330.242 4.46682 330.189 4.44982 330.143 4.41482C325.16 0.556817 318.108 -0.564183 312.171 1.56082C312.046 1.60482 311.898 1.53982 311.852 1.40982C311.805 1.27982 311.873 1.13682 312.003 1.08982C318.093 -1.09118 325.333 0.0598173 330.449 4.01882C330.558 4.10282 330.578 4.26082 330.493 4.36982C330.444 4.43382 330.37 4.46682 330.296 4.46682Z" fill="#1F76F1"/>
<path d="M306.765 3.99778C306.693 3.99778 306.62 3.96578 306.571 3.90578C306.484 3.79878 306.501 3.64078 306.608 3.55378C307.389 2.91878 308.316 2.44078 309.288 2.17278C309.423 2.13278 309.559 2.21478 309.596 2.34678C309.632 2.47978 309.555 2.61778 309.421 2.65478C308.516 2.90478 307.652 3.35078 306.923 3.94278C306.877 3.98078 306.821 3.99878 306.766 3.99878L306.765 3.99778Z" fill="#1F76F1"/>
<path d="M317.351 32.2068C316.61 32.2068 315.991 31.9678 315.493 31.4888C314.996 31.0098 314.748 30.4268 314.748 29.7398C314.748 29.0528 314.992 28.4788 315.48 28.0178C315.968 27.5568 316.592 27.3268 317.351 27.3268C318.11 27.3268 318.734 27.5568 319.222 28.0178C319.71 28.4788 319.954 29.0528 319.954 29.7398C319.954 30.4268 319.706 31.0108 319.208 31.4888C318.711 31.9678 318.093 32.2068 317.351 32.2068ZM319.032 25.4008H315.669L314.828 13.0078H319.872L319.032 25.4008Z" fill="white"/>
<path d="M110.992 356.505L114.639 383.261L123.359 383.702L126.182 357.908L110.992 356.505Z" fill="#263238"/>
<path d="M130.783 395.683H111.279C111.279 395.683 110.854 394.864 111.34 392.683C111.414 392.343 111.511 391.97 111.637 391.563C111.644 391.542 111.648 391.522 111.655 391.502C111.837 390.899 112.047 390.156 112.269 389.355C113.162 386.09 114.213 381.823 114.213 381.823C114.213 381.823 117.458 374.876 121.254 376.611C124.585 378.132 123.795 382.487 123.795 382.487C123.795 382.487 124.121 385.044 126.646 387.298C128.208 388.691 129.76 389.769 130.508 391.502C130.648 391.826 130.758 392.17 130.836 392.544C130.845 392.589 130.854 392.636 130.861 392.683C131.016 393.518 131.008 394.497 130.783 395.683Z" fill="#263238"/>
<path opacity="0.3" d="M111.34 392.683C110.854 394.864 111.279 395.683 111.279 395.683H130.783C131.008 394.497 131.017 393.518 130.862 392.683H111.34Z" fill="white"/>
<path d="M123.01 383.58C121.913 382.725 120.474 382.836 119.487 383.798C119.222 384.057 118.814 383.65 119.08 383.391C120.311 382.19 122.07 382.123 123.417 383.172C123.709 383.399 123.299 383.804 123.01 383.579V383.58Z" fill="#0AA643"/>
<path d="M123.561 385.402C122.464 384.547 121.025 384.658 120.038 385.621C119.773 385.88 119.365 385.473 119.631 385.214C120.862 384.013 122.621 383.946 123.968 384.995C124.26 385.222 123.85 385.627 123.561 385.402Z" fill="#0AA643"/>
<path d="M124.114 387.077C123.017 386.222 121.578 386.333 120.591 387.295C120.326 387.554 119.918 387.147 120.184 386.888C121.416 385.687 123.174 385.62 124.521 386.669C124.813 386.897 124.403 387.301 124.114 387.076V387.077Z" fill="#0AA643"/>
<path d="M74.3835 354.83L70.7365 381.586L62.0175 382.027L59.1935 356.233L74.3835 354.83Z" fill="#263238"/>
<path d="M54.5926 394.008H74.0966C74.0966 394.008 74.5215 393.189 74.0355 391.008C73.9615 390.668 73.8646 390.295 73.7386 389.887C73.7316 389.867 73.7275 389.846 73.7205 389.826C73.5385 389.223 73.3285 388.48 73.1065 387.679C72.2135 384.414 71.1625 380.147 71.1625 380.147C71.1625 380.147 67.9175 373.2 64.1205 374.935C60.7895 376.456 61.5796 380.811 61.5796 380.811C61.5796 380.811 61.2535 383.368 58.7285 385.622C57.1665 387.015 55.6135 388.093 54.8665 389.826C54.7265 390.15 54.6165 390.494 54.5385 390.868C54.5295 390.913 54.5205 390.96 54.5135 391.008C54.3585 391.843 54.3676 392.822 54.5926 394.008Z" fill="#263238"/>
<path opacity="0.3" d="M74.0366 391.009C74.5226 393.19 74.0976 394.009 74.0976 394.009H54.5935C54.3685 392.823 54.3596 391.844 54.5146 391.009H74.0366Z" fill="white"/>
<path d="M62.3655 381.906C63.4625 381.051 64.9016 381.162 65.8886 382.124C66.1536 382.383 66.5616 381.976 66.2956 381.717C65.0646 380.516 63.3056 380.449 61.9586 381.498C61.6666 381.725 62.0765 382.131 62.3655 381.906Z" fill="#0AA643"/>
<path d="M61.8155 383.727C62.9125 382.872 64.3516 382.983 65.3386 383.945C65.6036 384.204 66.0115 383.797 65.7455 383.538C64.5145 382.337 62.7555 382.27 61.4085 383.319C61.1165 383.546 61.5265 383.951 61.8155 383.726V383.727Z" fill="#0AA643"/>
<path d="M61.2625 385.402C62.3595 384.547 63.7986 384.658 64.7856 385.621C65.0506 385.88 65.4585 385.473 65.1925 385.214C63.9605 384.013 62.2026 383.946 60.8556 384.995C60.5636 385.223 60.9735 385.627 61.2625 385.402Z" fill="#0AA643"/>
<path d="M132.108 240.754L132.111 240.756C132.111 240.756 131.259 346.151 128.751 375.085L108.419 376.095C107.652 355.019 102.237 280.723 102.237 280.723C101.155 271.481 99.9725 237.128 98.5405 222.895C95.5845 239.962 91.8665 275.666 90.8705 280.421C89.2145 288.327 78.3806 378.861 78.3806 378.861L56.5675 376.638C56.5675 376.638 60.4476 289.349 60.9106 274.665C63.0306 207.329 64.7155 178.991 64.7155 178.991L89.5295 183.276L130.092 180.859C130.092 180.859 133.515 218.681 132.108 240.754Z" fill="#263238"/>
<path opacity="0.3" d="M132.108 240.754L132.111 240.756C132.111 240.756 131.259 346.151 128.751 375.085L108.419 376.095C107.652 355.019 102.237 280.723 102.237 280.723C101.155 271.481 99.9725 237.128 98.5405 222.895C95.5845 239.962 91.8665 275.666 90.8705 280.421C89.2145 288.327 78.3806 378.861 78.3806 378.861L56.5675 376.638C56.5675 376.638 60.4476 289.349 60.9106 274.665C63.0306 207.329 64.7155 178.991 64.7155 178.991L89.5295 183.276L130.092 180.859C130.092 180.859 133.515 218.681 132.108 240.754Z" fill="white"/>
<path opacity="0.3" d="M87.6895 303.248C87.6895 303.248 77.6226 304.204 68.1526 302.073C58.6816 299.942 59.9125 299.782 59.9125 299.782L60.1115 295.034L88.5146 298.166L87.6895 303.248Z" fill="black"/>
<path opacity="0.3" d="M131.324 299.782C131.324 299.782 114.14 304.723 103.813 302.806L103.533 298.836L131.395 295.75L131.324 299.782Z" fill="black"/>
<path d="M161.498 23.7509C161.498 23.7509 158.607 15.9999 159.564 14.4939C160.522 12.9879 161.914 12.3549 161.914 12.3549C161.914 12.3549 162.205 8.62287 164.143 8.06887C165.787 7.59787 166.135 9.69687 166.135 9.69687C166.135 9.69687 169.254 8.12188 169.758 10.3989C169.758 10.3989 172.214 9.38888 173.09 11.9669C173.09 11.9669 175.395 12.6019 175.434 14.5439C175.473 16.4859 173.728 23.8329 171.543 26.9919C170.882 27.9489 170.266 28.2719 169.061 28.2999C169.061 28.2999 168.862 45.1109 169.325 45.4539L158.774 37.6339L161.498 23.7509Z" fill="#BF5E60"/>
<path d="M162.201 12.4429C163.476 12.1129 164.788 11.9579 166.063 11.6279C166.533 11.5059 167.598 11.0809 168.047 11.2649C168.783 11.5669 168.98 12.0369 168.798 12.8119C168.461 14.2479 166.218 15.5509 164.743 15.5829C165.527 16.4159 166.526 18.0159 166.803 19.1259C167.08 20.2359 166.89 21.5079 166.107 22.3419" fill="#BF5E60"/>
<path d="M166.108 22.5919C166.174 22.5919 166.241 22.5659 166.29 22.5129C167.078 21.6739 167.368 20.3519 167.046 19.0649C166.791 18.0439 165.977 16.6759 165.248 15.7819C166.792 15.5149 168.719 14.2419 169.041 12.8689C169.255 11.9569 168.969 11.3729 168.142 11.0329C167.741 10.8699 167.101 11.0449 166.37 11.2749C166.227 11.3189 166.099 11.3589 166 11.3849C165.37 11.5489 164.715 11.6709 164.083 11.7899C163.444 11.9099 162.783 12.0339 162.138 12.2009C162.004 12.2359 161.924 12.3719 161.958 12.5059C161.992 12.6399 162.127 12.7209 162.263 12.6859C162.891 12.5229 163.544 12.4009 164.175 12.2829C164.816 12.1619 165.478 12.0379 166.125 11.8709C166.231 11.8429 166.367 11.8009 166.52 11.7529C166.957 11.6159 167.687 11.3879 167.953 11.4969C168.557 11.7459 168.715 12.0749 168.556 12.7559C168.253 14.0479 166.149 15.3029 164.739 15.3339C164.64 15.3359 164.552 15.3959 164.514 15.4869C164.476 15.5779 164.495 15.6829 164.562 15.7549C165.313 16.5539 166.296 18.1229 166.562 19.1869C166.843 20.3109 166.6 21.4549 165.927 22.1719C165.832 22.2729 165.837 22.4309 165.938 22.5249C165.986 22.5699 166.047 22.5929 166.109 22.5929L166.108 22.5919Z" fill="#A74145"/>
<path d="M174.677 16.4089C174.593 16.8319 174.507 17.2629 174.296 17.6389C174.086 18.0149 173.727 18.3349 173.299 18.3859C172.616 18.4669 172.034 17.8539 171.788 17.2109C171.448 16.3229 171.529 15.2849 172.001 14.4599C171.78 15.1549 171.407 15.8219 170.828 16.2649C170.249 16.7079 169.442 16.8909 168.769 16.6109C168.096 16.3309 168.723 13.9539 168.944 13.2589" fill="#BF5E60"/>
<path d="M173.176 18.6429C173.226 18.6429 173.277 18.6399 173.328 18.6339C173.796 18.5789 174.239 18.2529 174.514 17.7609C174.746 17.3449 174.84 16.8729 174.922 16.4569C174.949 16.3219 174.861 16.1899 174.725 16.1639C174.593 16.1359 174.458 16.2249 174.432 16.3609C174.353 16.7589 174.272 17.1709 174.078 17.5179C173.881 17.8699 173.579 18.1009 173.27 18.1389C172.728 18.1929 172.234 17.6759 172.021 17.1219C171.798 16.5389 171.77 15.8929 171.928 15.2929C172.049 15.0599 172.153 14.8069 172.239 14.5359C172.278 14.4139 172.218 14.2829 172.101 14.2309C171.982 14.1809 171.847 14.2259 171.784 14.3359C171.644 14.5799 171.536 14.8389 171.461 15.1079C171.248 15.5059 170.983 15.8319 170.676 16.0659C170.127 16.4859 169.416 16.6089 168.864 16.3799C168.569 16.2569 168.723 14.7769 169.181 13.3349C169.223 13.2039 169.15 13.0629 169.018 13.0209C168.885 12.9789 168.746 13.0519 168.704 13.1839C168.532 13.7259 167.722 16.4479 168.672 16.8419C169.384 17.1399 170.29 16.9899 170.979 16.4639C171.102 16.3699 171.219 16.2639 171.33 16.1479C171.339 16.5399 171.413 16.9309 171.555 17.2999C171.81 17.9669 172.416 18.6429 173.176 18.6429Z" fill="#A74145"/>
<path d="M159.008 28.3849C159.601 29.5229 152.904 67.4789 152.904 67.4789L131.785 85.5669L122.742 85.6739C118.017 88.2579 130.941 125.47 132.448 125.47C133.955 125.47 171.178 88.5429 176.9 80.7589C181.439 74.5829 185.145 34.8039 185.145 34.8039L159.008 28.3849Z" fill="#263238"/>
<path opacity="0.3" d="M133.345 124.886L132.955 118.64L135.008 99.3989L139.297 119.51L133.345 124.886Z" fill="black"/>
<path d="M118.645 24.5279L118.104 23.0309L83.9885 19.4769L57.0685 45.1059L57.6105 46.6029L118.645 24.5279Z" fill="#0AA643"/>
<path d="M118.645 24.5279C118.645 24.5279 91.0015 47.4359 90.7585 47.2819C90.5155 47.1279 57.6095 46.6039 57.6095 46.6039L84.3845 20.8629L118.645 24.5279Z" fill="#0AA643"/>
<path opacity="0.4" d="M118.645 24.5279C118.645 24.5279 91.0015 47.4359 90.7585 47.2819C90.5155 47.1279 57.6095 46.6039 57.6095 46.6039L84.3845 20.8629L118.645 24.5279Z" fill="black"/>
<path d="M113.27 35.636L113.985 35.409C113.623 34.267 113.274 32.879 112.905 31.409C111.818 27.077 110.586 22.168 108.306 21.004C107.966 20.83 107.57 20.828 107.221 20.998C106.861 21.172 106.6 21.509 106.523 21.899L107.258 22.045C107.29 21.884 107.399 21.744 107.548 21.672C107.629 21.633 107.789 21.582 107.965 21.672C109.942 22.681 111.181 27.621 112.177 31.591C112.549 33.072 112.9 34.471 113.269 35.635L113.27 35.636Z" fill="#263238"/>
<path d="M112.925 36.485C113.157 36.932 113.707 37.106 114.154 36.874C114.601 36.642 114.775 36.092 114.543 35.645C114.311 35.198 113.761 35.024 113.314 35.256C112.867 35.488 112.693 36.038 112.925 36.485Z" fill="#263238"/>
<path d="M113.943 36.1299C115.008 36.6169 115.578 37.7729 115.991 38.8679C116.404 39.9639 116.782 41.1469 117.679 41.8999C117.94 42.1199 118.25 42.3079 118.402 42.6129C118.554 42.9189 118.435 43.3889 118.096 43.4329C117.438 42.9609 116.877 42.3549 116.457 41.6629C116.759 42.7159 117.175 43.7369 117.694 44.7019C117.266 45.0059 116.206 45.3829 115.7 45.5239C115.194 45.6649 115.221 45.5399 114.841 45.1769C114.63 44.9749 114.504 44.7009 114.392 44.4309C113.296 41.7969 112.978 38.8439 113.488 36.0359" fill="#263238"/>
<path opacity="0.3" d="M69.3745 46.9069L72.3556 40.8359L74.5836 46.9739L69.3745 46.9069Z" fill="black"/>
<path d="M89.4526 89.2239C89.4526 89.2239 96.0686 93.4839 97.6716 93.6629C99.8266 93.9029 109.021 85.1179 109.021 85.1179C103.432 83.3239 103.285 75.4389 103.351 71.5279L84.8826 62.8159C84.8826 62.8159 84.8826 62.8289 84.8976 62.8679C85.4966 64.1859 92.5746 73.4679 91.7756 80.5859L89.4526 89.2249V89.2239Z" fill="#BF5E60"/>
<g opacity="0.2">
<path d="M94.9655 76.9539C97.2475 78.9589 100.982 79.764 104.148 79.413C104.065 79.138 103.967 78.716 103.897 78.441C103.785 78.008 103.693 77.296 103.607 76.836C103.506 76.272 103.483 75.691 103.435 75.1C103.431 74.863 103.398 74.903 103.394 74.666L103.387 74.179L93.3925 72.2C92.6915 72.869 93.1245 75.3229 94.9655 76.9539Z" fill="black"/>
</g>
<path d="M79.8845 55.0719C76.2325 45.1079 83.8996 34.4709 94.8766 35.5299C106.018 36.6049 111.899 51.2589 112.44 61.0289C113.041 71.8839 101.899 80.2699 91.8486 74.7339C85.1676 71.0539 83.5365 65.0359 79.8845 55.0719Z" fill="#BF5E60"/>
<path d="M94.2966 54.7599C94.5326 55.8179 95.2846 56.5439 95.9756 56.3829C96.6666 56.2219 97.0356 55.2329 96.7986 54.1749C96.5626 53.1169 95.8106 52.3899 95.1196 52.5519C94.4286 52.7129 94.0596 53.7019 94.2966 54.7599Z" fill="#263238"/>
<path d="M104.835 53.3629C105.071 54.4209 105.823 55.1479 106.514 54.9859C107.205 54.8239 107.574 53.8359 107.338 52.7779C107.102 51.7199 106.35 50.9929 105.659 51.1549C104.968 51.3169 104.599 52.3049 104.836 53.3629H104.835Z" fill="#263238"/>
<path d="M102.075 52.4219C102.075 52.4219 106.599 56.9299 108.15 58.8309C106.975 60.4899 104.301 60.4439 104.301 60.4439L102.075 52.4219Z" fill="#A74145"/>
<path d="M91.5486 50.3879C91.7226 50.4179 91.9086 50.3549 92.0296 50.2069C93.4406 48.4929 95.1715 48.6099 95.3535 48.6259C95.6315 48.6549 95.8835 48.4529 95.9155 48.1749C95.9465 47.8969 95.7456 47.6479 95.4686 47.6189C95.3706 47.6079 93.0375 47.3919 91.2475 49.5699C91.0685 49.7869 91.0985 50.1059 91.3145 50.2819C91.3845 50.3389 91.4646 50.3739 91.5486 50.3879Z" fill="#263238"/>
<path d="M108.105 48.0829C108.192 48.0419 108.27 47.9769 108.324 47.8879C108.472 47.6489 108.4 47.3349 108.163 47.1869C105.789 45.7049 103.678 46.6959 103.577 46.7289C103.324 46.8489 103.214 47.1529 103.332 47.4069C103.449 47.6609 103.747 47.7699 103.999 47.6529C104.085 47.6079 105.722 46.8649 107.627 48.0549C107.776 48.1479 107.955 48.1529 108.104 48.0839L108.105 48.0829Z" fill="#263238"/>
<path d="M96.9096 63.7029C96.1486 60.9719 104.24 64.3719 104.24 64.3719C104.24 64.3719 103.83 67.5859 100.891 67.7139C97.3366 67.8689 96.9096 63.7029 96.9096 63.7029Z" fill="white"/>
<path d="M85.1545 59.8859C85.1545 59.8859 80.0375 42.5889 85.0085 39.8939C89.9795 37.1989 92.6986 41.7459 96.1696 40.5249C99.6406 39.3039 98.5905 36.7939 98.5905 36.7939C101.144 37.4299 104.094 40.9729 106.726 43.5689C106.726 43.5689 102.383 36.1249 97.6496 34.7589C88.4376 32.0999 78.9276 35.5619 76.0786 41.4819C73.2806 47.2969 76.7195 56.1499 76.7195 56.1499C79.8435 62.7559 81.8485 66.3649 86.1975 69.6759L85.1545 59.8859Z" fill="#263238"/>
<path d="M78.0075 62.9159C79.4805 65.4839 82.0055 67.1189 84.3675 67.6999C87.9205 68.5739 88.3315 64.8109 87.2745 61.5019C86.3225 58.5239 84.6085 55.0199 81.0755 55.6169C77.5955 56.2059 76.3235 59.9799 78.0075 62.9159Z" fill="#BF5E60"/>
<path opacity="0.2" d="M85.4036 61.7729C85.4306 61.7729 85.4586 61.7689 85.4846 61.7589C85.6156 61.7139 85.6846 61.5709 85.6396 61.4409C85.3146 60.4989 84.7446 59.6549 83.9936 58.9989C83.4866 58.5569 82.6785 58.0249 81.7055 58.0039C80.7475 57.9939 79.8706 58.5219 79.5606 59.3139C79.5096 59.4429 79.5736 59.5879 79.7026 59.6379C79.8276 59.6869 79.9756 59.6249 80.0256 59.4959C80.2536 58.9159 80.9336 58.5029 81.6546 58.5029H81.6946C82.5166 58.5209 83.2196 58.9869 83.6656 59.3749C84.3526 59.9729 84.8706 60.7439 85.1676 61.6029C85.2036 61.7069 85.3006 61.7709 85.4036 61.7709V61.7729Z" fill="black"/>
<path d="M81.4785 44.4009C81.3475 42.1599 81.9195 39.7769 83.5045 38.1869C84.2535 37.4349 85.1875 36.8959 86.1385 36.4249C88.6675 35.1719 86.5875 34.9799 89.2875 34.1579L91.9716 33.8019C94.1216 33.8079 98.3205 34.4089 100.385 35.0089C103.663 35.9609 107.255 40.2029 107.676 40.4789C108.159 40.7959 109.759 40.5349 110.327 40.6389C112.143 40.9709 109.974 43.5539 107.444 43.8019C104.609 44.0799 103.437 42.9089 101.574 41.5999C103.009 43.2859 105.45 43.7009 104.104 44.4019C100.692 45.0469 96.5166 46.3099 92.3675 44.0439C92.5965 44.6119 92.8286 45.1999 92.8096 45.8119C92.7906 46.4239 92.4515 47.0699 91.8675 47.2509C91.3945 47.3969 90.8835 47.2149 90.4505 46.9759C88.9255 46.1359 87.8975 44.6359 86.9275 43.1909C85.8565 45.8569 85.9826 54.2139 84.5146 56.6829C78.9806 53.2789 81.6095 46.6409 81.4775 44.3999L81.4785 44.4009Z" fill="#263238"/>
<path d="M107.677 40.4799C107.902 40.7549 104.833 30.7789 104.833 30.7789C104.833 30.7789 104.051 24.1309 88.2315 27.8649C88.2315 27.8649 70.4035 33.1519 72.5285 42.2819L75.1195 50.9219C75.1195 50.9219 96.4405 26.7289 107.677 40.4799Z" fill="#0AA643"/>
<path opacity="0.2" d="M107.677 40.4799C107.902 40.7549 104.833 30.7789 104.833 30.7789C104.833 30.7789 104.051 24.1309 88.2315 27.8649C88.2315 27.8649 70.4035 33.1519 72.5285 42.2819L75.1195 50.9219C75.1195 50.9219 96.4405 26.7289 107.677 40.4799Z" fill="black"/>
<path d="M74.2545 48.0399C74.2545 48.0399 84.0335 34.7199 98.1635 34.0069C98.1635 34.0069 105.514 33.6099 107.078 38.2189L107.677 40.4809C107.677 40.4809 104.871 34.9049 96.0745 36.6769C87.2785 38.4499 75.1195 50.9219 75.1195 50.9219L74.2555 48.0399H74.2545Z" fill="#0AA643"/>
<path d="M112.515 86.8579L109.886 86.2009L105.409 80.2189L98.3115 85.3449L91.8235 81.5029L88.9045 85.6739L82.8425 86.1859L98.1855 115.509L112.515 86.8579Z" fill="#0AA643"/>
<path opacity="0.8" d="M112.515 86.8579L109.886 86.2009L105.409 80.2189L98.3115 85.3449L91.8235 81.5029L88.9045 85.6739L82.8425 86.1859L98.1855 115.509L112.515 86.8579Z" fill="white"/>
<path opacity="0.2" d="M109.885 86.2008L102.926 92.2408L98.3125 85.7548L93.9885 91.3728L88.9055 85.6738C88.9055 85.6738 93.8865 92.7148 94.0395 92.6568C94.1925 92.5988 98.3125 86.5218 98.3125 86.5218L102.977 93.6208L109.885 86.2008Z" fill="black"/>
<path d="M101.807 90.6678L99.9475 94.0078H96.4395L94.7325 90.4059L97.4085 86.9279L99.1785 86.9948L101.807 90.6678Z" fill="#0AA643"/>
<path d="M99.9475 94.0078L101.807 103.217L96.6725 111.107L93.4275 103.228L96.4395 94.0078H99.9475Z" fill="#0AA643"/>
<path d="M123.932 85.6738L112.164 86.2428L96.6715 111.107L86.1495 85.5538L62.0095 90.8548L65.5285 142.396L48.5885 290.902C48.5885 290.902 72.1405 301.463 95.4745 299.55C118.809 297.637 143.893 294.114 143.893 294.114L132.956 118.639L123.933 85.6728L123.932 85.6738Z" fill="#263238"/>
<path d="M135.584 94.0079C134.834 100.141 133.457 112.482 132.788 118.622L132.957 118.472C117.748 118.394 85.2065 117.644 70.7735 118.008C70.0755 111.619 68.5425 98.7579 67.7675 92.3779C68.4125 98.7829 69.7295 111.65 70.4435 118.045C85.7215 118.698 117.414 118.588 132.953 118.809H133.107L133.123 118.658C133.761 112.521 135.02 100.153 135.584 94.0079Z" fill="black"/>
<path d="M114.491 118.982C114.151 121.117 114.148 123.26 114.491 125.395C114.834 123.26 114.831 121.117 114.491 118.982Z" fill="black"/>
<path d="M109.467 118.754C108.333 140.633 107.442 164.717 106.964 186.62C108.101 164.737 108.986 140.661 109.467 118.754Z" fill="black"/>
<path d="M91.1495 117.893C90.8225 134.165 90.8195 152.067 91.1495 168.339C91.4795 152.067 91.4765 134.165 91.1495 117.893Z" fill="black"/>
<path d="M86.1265 117.665C85.1795 127.906 84.4925 139.199 84.2015 149.48C85.1515 139.239 85.8325 127.946 86.1265 117.665Z" fill="black"/>
<g opacity="0.3">
<path d="M100.219 291.636C104.741 280.435 106.957 252.412 106.964 239.912C104.198 252.769 96.2395 280.901 87.7325 291.085C91.7665 292.284 96.0955 292.475 100.219 291.636Z" fill="black"/>
</g>
<path d="M30.1725 118.923C30.1725 118.923 30.4935 110.68 29.1165 109.553C27.7395 108.426 26.2235 108.26 26.2235 108.26C26.2235 108.26 24.7835 104.817 22.7755 104.895C21.0715 104.962 21.3965 107.058 21.3965 107.058C21.3965 107.058 17.9515 106.54 18.1845 108.853C18.1845 108.853 15.5435 108.663 15.5185 111.377C15.5185 111.377 13.5335 112.697 14.1025 114.548C14.6715 116.399 18.6155 122.813 21.6705 125.124C22.5955 125.824 23.2795 125.938 24.4295 125.589C24.4295 125.589 28.9175 139.246 31.8215 139.246L34.8585 124.463L30.1735 118.922L30.1725 118.923Z" fill="#BF5E60"/>
<path d="M24.2435 101.527C22.0555 100.946 20.0695 99.6329 18.6775 97.8479C18.1955 97.2299 17.7645 96.4498 17.9745 95.6938C18.1395 95.1008 18.6625 94.6808 19.1935 94.3678C20.0015 93.8908 20.8985 93.5628 21.8235 93.4068C22.6015 93.2758 23.4795 93.2919 24.0805 93.8029C24.7195 94.3459 24.8485 95.2659 24.9355 96.0999C25.0595 97.2989 25.1835 98.4968 25.3075 99.6958C25.3365 99.9798 25.3645 100.274 25.2705 100.543C25.1765 100.812 24.9225 101.048 24.6385 101.023C24.1665 100.983 24.0295 100.367 23.9985 99.8938C23.9275 98.8128 23.7365 97.6999 23.1295 96.8019C22.5225 95.9039 21.4135 95.2759 20.3555 95.5119C20.0655 95.5769 19.7455 95.7679 19.7455 96.0649C19.7455 96.2649 19.8935 96.4288 20.0325 96.5728C21.5635 98.1538 23.0935 99.7349 24.6245 101.316" fill="#0AA643"/>
<path d="M30.3015 79.9039L16.1525 123.126L20.7195 124.679L34.6175 81.1339C34.6175 81.1339 33.4485 79.6239 30.3005 79.9039H30.3015Z" fill="#0AA643"/>
<path opacity="0.8" d="M30.3015 79.9039L16.1525 123.126L20.7195 124.679L34.6175 81.1339C34.6175 81.1339 33.4485 79.6239 30.3005 79.9039H30.3015Z" fill="white"/>
<path d="M23.2195 101.536C23.2195 101.536 24.4045 104.662 27.4225 103.675L28.5495 100.145C28.5495 100.145 24.7655 99.9549 24.4425 97.8019L23.2205 101.536H23.2195Z" fill="#0AA643"/>
<path d="M27.0145 101.428C28.8755 100.14 31.1635 99.4799 33.4245 99.5769C34.2085 99.6109 35.0805 99.7889 35.5195 100.439C35.8635 100.95 35.8445 101.62 35.7385 102.227C35.5775 103.152 35.2455 104.046 34.7635 104.852C34.3585 105.529 33.7775 106.187 32.9985 106.313C32.1705 106.447 31.3865 105.949 30.6955 105.473C29.7025 104.79 28.7095 104.107 27.7165 103.424C27.4815 103.262 27.2395 103.093 27.0955 102.847C26.9515 102.601 26.9375 102.255 27.1395 102.054C27.4765 101.721 28.0335 102.016 28.4135 102.299C29.2825 102.946 30.2535 103.523 31.3305 103.643C32.4075 103.764 33.6055 103.327 34.1105 102.368C34.2495 102.105 34.3115 101.738 34.0855 101.545C33.9335 101.416 33.7115 101.422 33.5125 101.434C31.3165 101.574 29.1205 101.713 26.9245 101.853" fill="#0AA643"/>
<path d="M25.9795 108.432C24.6685 108.517 23.3785 108.78 22.0675 108.865C21.5845 108.896 20.4425 108.826 20.0755 109.14C19.4725 109.656 19.4325 110.162 19.8465 110.84C20.6135 112.095 23.1445 112.629 24.5505 112.2C24.0685 113.234 23.6205 115.06 23.7045 116.198C23.7885 117.336 24.3655 118.481 25.3665 119.027" fill="#BF5E60"/>
<path d="M25.3665 119.277C25.4545 119.277 25.5405 119.23 25.5865 119.147C25.6515 119.026 25.6075 118.874 25.4865 118.808C24.6255 118.339 24.0375 117.331 23.9535 116.18C23.8735 115.09 24.3145 113.297 24.7765 112.306C24.8185 112.216 24.8035 112.111 24.7385 112.036C24.6745 111.961 24.5725 111.932 24.4765 111.961C23.1345 112.372 20.7485 111.839 20.0585 110.71C19.6955 110.115 19.7425 109.754 20.2375 109.331C20.4555 109.144 21.2175 109.134 21.6735 109.127C21.8325 109.125 21.9745 109.123 22.0845 109.116C22.7475 109.073 23.4135 108.984 24.0565 108.898C24.6925 108.814 25.3485 108.726 25.9955 108.684C26.1335 108.675 26.2375 108.556 26.2275 108.418C26.2185 108.281 26.1215 108.179 25.9615 108.185C25.2985 108.228 24.6325 108.317 23.9895 108.403C23.3535 108.487 22.6975 108.575 22.0505 108.617C21.9475 108.624 21.8155 108.625 21.6655 108.628C20.9005 108.639 20.2405 108.67 19.9115 108.952C19.2325 109.533 19.1435 110.175 19.6325 110.972C20.3645 112.173 22.5785 112.778 24.1325 112.549C23.7215 113.622 23.3775 115.171 23.4545 116.218C23.5505 117.537 24.2365 118.698 25.2455 119.249C25.2835 119.27 25.3245 119.279 25.3655 119.279L25.3665 119.277Z" fill="#A74145"/>
<path d="M15.3995 116.08C15.6105 116.454 15.8275 116.836 16.1445 117.126C16.4615 117.417 16.9005 117.607 17.3215 117.522C17.9935 117.386 18.3535 116.623 18.3865 115.938C18.4315 114.991 18.0315 114.033 17.3275 113.399C17.7535 113.988 18.3155 114.504 19.0015 114.743C19.6885 114.982 20.5095 114.904 21.0595 114.429C21.6095 113.954 20.2745 111.898 19.8485 111.309" fill="#BF5E60"/>
<path d="M17.1175 117.792C17.2035 117.792 17.2885 117.784 17.3715 117.767C18.1885 117.6 18.6005 116.708 18.6365 115.95C18.6555 115.556 18.6035 115.163 18.4905 114.789C18.6315 114.865 18.7745 114.928 18.9205 114.978C19.7325 115.262 20.6405 115.122 21.2235 114.617C21.9815 113.964 20.5185 111.807 20.0525 111.161C19.9695 111.05 19.8135 111.024 19.7025 111.105C19.5905 111.186 19.5655 111.342 19.6455 111.454C20.5295 112.677 21.1375 114.03 20.8965 114.238C20.4455 114.628 19.7345 114.731 19.0845 114.506C18.7205 114.379 18.3675 114.154 18.0415 113.843C17.8865 113.613 17.7035 113.4 17.4945 113.212C17.4005 113.127 17.2565 113.127 17.1605 113.212C17.0655 113.297 17.0505 113.441 17.1255 113.545C17.2915 113.774 17.4695 113.982 17.6555 114.165C17.9925 114.684 18.1675 115.304 18.1365 115.926C18.1095 116.515 17.8035 117.169 17.2725 117.277C16.9705 117.341 16.6095 117.214 16.3135 116.942C16.0215 116.673 15.8165 116.309 15.6185 115.957C15.5505 115.836 15.3985 115.793 15.2775 115.862C15.1575 115.93 15.1155 116.082 15.1825 116.202C15.3895 116.57 15.6245 116.988 15.9755 117.31C16.3145 117.621 16.7265 117.792 17.1185 117.792H17.1175Z" fill="#A74145"/>
<path d="M62.4635 90.6989C62.4635 90.6989 60.6565 90.7379 58.9935 92.2619C57.3305 93.7859 40.4265 130.228 40.4265 130.228L32.4515 120.307L17.0095 157.109C17.0095 157.109 28.2335 169.718 40.7035 170.827C53.1735 171.935 65.9135 141.511 65.9135 141.511L70.6085 118.026L62.4635 90.6989Z" fill="#263238"/>
<path d="M40.5165 130.334C42.7855 137.52 43.6995 145.182 42.9025 152.687C44.3855 145.27 43.4325 137.294 40.5165 130.334Z" fill="black"/>
<path opacity="0.3" d="M68.5555 118.64C68.3855 119.469 65.5285 142.396 65.5285 142.396C65.5285 142.396 65.8675 119.299 67.0415 112.169L68.5545 118.639L68.5555 118.64Z" fill="black"/>
<path d="M125.177 85.6739C125.177 85.6739 131.946 201.124 121.707 232.118C121.707 232.118 121.138 225.722 108.17 222.39C102.446 220.919 98.5405 222.895 98.5405 222.895C98.5405 222.895 112.956 181.88 114.49 157.097C115.77 136.409 113.835 85.6739 113.835 85.6739C113.835 85.6739 118.258 82.6849 125.177 85.6739Z" fill="#0AA643"/>
<path opacity="0.3" d="M100.238 217.87C100.215 217.942 104.544 215.851 112.581 218.503C120.613 221.153 123.261 226.177 123.265 226.183C122.796 228.4 122.279 230.391 121.708 232.118C121.708 232.118 121.139 225.722 108.171 222.39C102.447 220.919 98.5415 222.895 98.5415 222.895C98.5415 222.895 99.1945 221.035 100.236 217.877L100.238 217.871V217.87Z" fill="white"/>
<g opacity="0.3">
<path d="M123.834 157.338C124.696 176.423 120.679 195.708 112.267 212.86C121.717 192.151 119.714 174.771 123.834 157.338Z" fill="black"/>
</g>
<path d="M82.8675 85.7928C82.8675 85.7928 88.8845 201.758 75.3575 221.398C75.3575 221.398 75.7925 217.076 64.7035 218.32C53.2195 219.608 54.7175 216.559 53.5755 214.295C52.2245 211.616 68.8555 167.563 70.8415 144.686C72.8735 121.273 72.3135 88.3518 72.3135 88.3518C72.3135 88.3518 73.6825 85.0078 82.8675 85.7928Z" fill="#0AA643"/>
<path opacity="0.3" d="M53.5745 214.295C53.3595 213.869 53.6005 212.396 54.1625 210.132C61.4005 215.682 59.1705 211.074 72.2365 212.344C75.0115 212.614 77.0645 213.13 78.5875 213.782C77.6595 217.013 76.5895 219.607 75.3565 221.398C75.3565 221.398 75.7915 217.076 64.7025 218.32C53.2185 219.608 54.7165 216.559 53.5745 214.295Z" fill="white"/>
<path opacity="0.3" d="M75.8025 156.119L64.1405 179.065C64.1405 179.065 74.7795 153.392 76.8615 142.06C78.9435 130.727 80.5625 124.735 80.5625 124.735L78.8345 145.447C78.5245 149.167 77.4945 152.792 75.8035 156.12L75.8025 156.119Z" fill="black"/>
<path d="M59.5155 38.9359C59.6085 38.9359 59.7025 38.9009 59.7745 38.8319L72.0735 27.0829C72.2235 26.9399 72.2285 26.7029 72.0865 26.5529C71.9415 26.4039 71.7055 26.3979 71.5565 26.5409L59.2575 38.2899C59.1075 38.4329 59.1025 38.6699 59.2445 38.8199C59.3185 38.8969 59.4175 38.9359 59.5155 38.9359Z" fill="#0AA643"/>
<path d="M73.1776 25.8779C73.2716 25.8779 73.3646 25.8428 73.4376 25.7738L75.0976 24.1808C75.2466 24.0378 75.2516 23.7998 75.1086 23.6508C74.9656 23.5008 74.7296 23.4968 74.5786 23.6398L72.9186 25.2328C72.7696 25.3758 72.7646 25.6138 72.9076 25.7628C72.9806 25.8398 73.0796 25.8779 73.1786 25.8779H73.1776Z" fill="#0AA643"/>
<path opacity="0.3" d="M85.4485 231.259C85.4485 231.259 63.3966 272.016 62.1536 273.34C60.9116 274.664 53.4966 281.606 53.4966 281.606C53.4966 281.606 78.3095 237.834 85.4485 231.259Z" fill="black"/>
</svg>
