<svg width="500" height="500" viewBox="0 0 500 500" fill="none" xmlns="http://www.w3.org/2000/svg">
<path d="M456 441.78C456 453.13 366.72 462.34 256.58 462.34C146.44 462.34 57.2 453.13 57.2 441.78C57.2 430.43 146.48 421.22 256.62 421.22C366.76 421.22 456 430.43 456 441.78Z" fill="black" fill-opacity="0.2"/>
<path d="M39.45 418.55L92.09 418.31L144.73 418.22L250 418.05L355.27 418.22L407.91 418.31L460.55 418.55L407.91 418.8L355.27 418.88L250 419.05L144.73 418.88L92.09 418.8L39.45 418.55Z" fill="#263238"/>
<path d="M211.01 60.54H66.07V283.97H211.01V60.54Z" fill="#37474F"/>
<path d="M200 60.54L179.28 283.97H97.79L77.07 60.54H200Z" fill="#455A64"/>
<path d="M150.13 259.98H126.96V268.64H150.13V259.98Z" fill="#A6A6A6"/>
<path d="M111.51 259.98H88.34V268.64H111.51V259.98Z" fill="#21F272"/>
<path d="M188.74 259.98H165.57V268.64H188.74V259.98Z" fill="#A6A6A6"/>
<path d="M116.09 85.04H113.1V112.13H116.09V85.04Z" fill="#37474F"/>
<path d="M122.08 85.04H119.09V112.13H122.08V85.04Z" fill="#37474F"/>
<path d="M128.06 85.04H125.07V112.13H128.06V85.04Z" fill="#37474F"/>
<path d="M134.05 85.04H131.06V112.13H134.05V85.04Z" fill="#37474F"/>
<path d="M140.03 85.04H137.04V112.13H140.03V85.04Z" fill="#37474F"/>
<path d="M146.02 85.04H143.03V112.13H146.02V85.04Z" fill="#37474F"/>
<path d="M152 85.04H149.01V112.13H152V85.04Z" fill="#37474F"/>
<path d="M157.99 85.04H155V112.13H157.99V85.04Z" fill="#37474F"/>
<path d="M163.98 85.04H160.99V112.13H163.98V85.04Z" fill="#37474F"/>
<path d="M142.39 147.52V441.78H336.39V147.52H142.39ZM262.31 168.6H216.48V160.38H262.31V168.6Z" fill="#EBEBEB"/>
<path d="M336.4 224.74V441.78H142.39V335.73L336.4 224.74Z" fill="#21F272"/>
<path opacity="0.1" d="M336.4 224.74V441.78H142.39V335.73L336.4 224.74Z" fill="black"/>
<path d="M336.4 189.2V210.83L142.39 321.69V320.98L336.4 189.2Z" fill="#21F272"/>
<path d="M306.98 188.51H171.82V350.18H306.98V188.51Z" fill="white"/>
<path d="M227 160.38H234.47C234.47 160.38 234.88 164.66 238.27 165.3C241.66 165.94 246.83 163.24 251.27 154.6C255.71 145.96 253.2 138.13 252.19 137.69C251.18 137.25 242.86 139.09 237.32 147.52H228.56C230.656 143.535 233.466 139.969 236.85 137C242.85 131.55 248.25 129.63 250.62 129.41L256.19 123.2L265.76 131.2L270.32 131.85L264.59 140.77C264.578 143.334 264.307 145.89 263.78 148.4C262.217 153.185 259.887 157.683 256.88 161.72C254.09 165.23 249.41 170.56 241.09 170.4C232.77 170.24 228.62 165.3 227 160.38Z" fill="#455A64"/>
<path d="M256.19 123.2L265.76 131.19L270.32 131.84L260.66 123.68L256.19 123.2Z" fill="#263238"/>
<path d="M252.19 137.69C251.19 137.24 242.86 139.09 237.32 147.52H234.61C242.39 136.71 251.06 136.3 252.19 137.69Z" fill="#37474F"/>
<path d="M238.27 165.3C238.27 165.3 234.03 166.14 232.27 160.38H234.51C234.51 160.38 234.9 164.45 238.07 165.24L238.27 165.3Z" fill="#37474F"/>
<path d="M270.32 131.84L264.58 140.76C264.568 143.32 264.3 145.873 263.78 148.38C262.98 151.62 259.66 158.19 256.88 161.71C254.1 165.23 249.41 170.54 241.09 170.39C239.846 170.376 238.606 170.235 237.39 169.97H237.54C247.14 171.36 253.02 164.97 257.7 156.65C262.07 148.89 260.8 139.25 260.8 139.25L265.8 131.17L270.32 131.84Z" fill="#37474F"/>
<path d="M270.807 129.679L259.625 120.781L257.913 122.933L269.094 131.831L270.807 129.679Z" fill="#455A64"/>
<path d="M297.85 114.15C295.51 112.38 273.47 98.24 267.74 94.7C262.01 91.16 257.56 88.32 254.82 91.54C252.08 94.76 250.9 102.28 252.35 105.47C253.8 108.66 260.07 119 260.21 120C260.244 120.292 260.211 120.587 260.114 120.864C260.017 121.142 259.858 121.393 259.65 121.6L269.84 129.95C270.237 129.344 270.83 128.892 271.52 128.67C272.52 128.47 289.38 129.38 291.07 129.3C293.177 129.36 295.267 128.898 297.152 127.956C299.038 127.014 300.662 125.621 301.88 123.9C305.6 118.51 300.19 115.93 297.85 114.15ZM289.42 124C284.42 123.93 275.92 122.78 269.51 118.53C266.13 116.28 257.28 108.09 256.51 102.16C256.403 100.115 256.927 98.0874 258.01 96.35C258.94 94.69 264.26 98.53 268.58 101.35C272.9 104.17 291.79 116.81 293.25 117.82C294.71 118.83 297.05 120.14 296.92 120.94C296.79 121.74 294.38 124.05 289.42 124Z" fill="#455A64"/>
<path d="M277.214 119.975L266.64 113.032L264.533 116.242L275.107 123.185L277.214 119.975Z" fill="#455A64"/>
<path d="M301.88 123.84C300.662 125.562 299.038 126.957 297.153 127.902C295.268 128.848 293.178 129.314 291.07 129.26C289.38 129.33 272.49 128.42 271.52 128.63C270.828 128.843 270.233 129.292 269.84 129.9L266.27 127C266.47 127 267.73 125.42 268.92 125.34C270.11 125.26 288.28 128.04 292.73 128.04C297.18 128.04 300.85 124.04 301.93 121.28C303.15 118.15 298.13 114.47 297.87 114.2C300.21 115.94 305.6 118.52 301.88 123.84Z" fill="#37474F"/>
<path d="M200.14 368.74H196.5L195.76 370.69C195.698 370.846 195.59 370.98 195.451 371.075C195.312 371.169 195.148 371.22 194.98 371.22C194.885 371.219 194.79 371.202 194.7 371.17C194.492 371.091 194.323 370.934 194.229 370.732C194.136 370.53 194.125 370.3 194.2 370.09L197.52 361.26C197.585 361.102 197.695 360.968 197.837 360.873C197.978 360.778 198.145 360.728 198.315 360.728C198.485 360.728 198.652 360.778 198.793 360.873C198.935 360.968 199.045 361.102 199.11 361.26L202.42 370.09C202.495 370.298 202.486 370.528 202.394 370.729C202.303 370.931 202.136 371.089 201.93 371.17C201.837 371.204 201.739 371.22 201.64 371.22C201.474 371.22 201.313 371.169 201.177 371.074C201.041 370.98 200.937 370.845 200.88 370.69L200.14 368.74ZM199.53 367.09L198.31 363.87L197.1 367.09H199.53Z" fill="#263238"/>
<path d="M206.13 370.39C206.128 370.606 206.042 370.813 205.891 370.967C205.74 371.122 205.536 371.212 205.32 371.22C205.1 371.22 204.889 371.132 204.733 370.977C204.577 370.821 204.49 370.61 204.49 370.39V361.66C204.487 361.527 204.516 361.396 204.573 361.276C204.63 361.156 204.715 361.051 204.82 360.97C204.996 360.846 205.214 360.796 205.426 360.829C205.639 360.863 205.831 360.978 205.96 361.15L210.81 367.86V361.68C210.81 361.465 210.895 361.259 211.047 361.107C211.199 360.955 211.405 360.87 211.62 360.87C211.836 360.87 212.043 360.955 212.196 361.107C212.35 361.258 212.437 361.464 212.44 361.68V370.39C212.44 370.608 212.354 370.818 212.2 370.973C212.047 371.129 211.838 371.217 211.62 371.22C211.501 371.218 211.384 371.19 211.277 371.138C211.17 371.086 211.075 371.012 211 370.92C210.971 370.895 210.947 370.864 210.93 370.83L206.13 364.17V370.39Z" fill="#263238"/>
<path d="M217.2 370.39C217.198 370.606 217.112 370.813 216.961 370.967C216.81 371.122 216.606 371.212 216.39 371.22C216.17 371.22 215.959 371.132 215.803 370.977C215.647 370.821 215.56 370.61 215.56 370.39V361.66C215.557 361.527 215.586 361.396 215.643 361.276C215.7 361.156 215.785 361.051 215.89 360.97C216.066 360.846 216.284 360.796 216.496 360.829C216.709 360.863 216.9 360.978 217.03 361.15L221.88 367.86V361.68C221.88 361.465 221.965 361.259 222.117 361.107C222.269 360.955 222.475 360.87 222.69 360.87C222.906 360.87 223.113 360.955 223.266 361.107C223.42 361.258 223.507 361.464 223.51 361.68V370.39C223.51 370.608 223.424 370.818 223.27 370.973C223.117 371.129 222.908 371.217 222.69 371.22C222.571 371.218 222.454 371.19 222.347 371.138C222.24 371.086 222.145 371.012 222.07 370.92C222.041 370.895 222.017 370.864 222 370.83L217.2 364.17V370.39Z" fill="#263238"/>
<path d="M226.14 370.39V361.54C226.139 361.432 226.159 361.325 226.2 361.225C226.24 361.124 226.301 361.034 226.377 360.957C226.454 360.881 226.545 360.82 226.645 360.78C226.745 360.739 226.852 360.719 226.96 360.72H231.87C232.087 360.723 232.294 360.81 232.447 360.963C232.6 361.116 232.687 361.323 232.69 361.54C232.69 361.759 232.604 361.97 232.451 362.127C232.298 362.284 232.089 362.375 231.87 362.38H227.8V365.13H231.3C231.516 365.135 231.722 365.223 231.874 365.376C232.027 365.528 232.115 365.734 232.12 365.95C232.121 366.059 232.101 366.167 232.061 366.268C232.02 366.37 231.96 366.462 231.884 366.54C231.808 366.618 231.717 366.68 231.617 366.723C231.517 366.766 231.409 366.789 231.3 366.79H227.8V369.55H231.87C232.076 369.572 232.266 369.67 232.404 369.824C232.542 369.978 232.619 370.178 232.619 370.385C232.619 370.592 232.542 370.791 232.404 370.946C232.266 371.1 232.076 371.197 231.87 371.22H227C226.889 371.224 226.777 371.205 226.673 371.166C226.569 371.126 226.474 371.065 226.394 370.988C226.313 370.91 226.25 370.817 226.206 370.715C226.162 370.612 226.14 370.501 226.14 370.39Z" fill="#263238"/>
<path d="M239.2 368.61C239.333 368.451 239.522 368.351 239.728 368.33C239.933 368.31 240.139 368.371 240.3 368.5C241.105 369.183 242.107 369.589 243.16 369.66C243.829 369.671 244.486 369.476 245.04 369.1C245.227 368.986 245.383 368.828 245.494 368.64C245.606 368.451 245.67 368.239 245.68 368.02C245.685 367.851 245.64 367.684 245.55 367.54C245.435 367.359 245.281 367.205 245.1 367.09C244.462 366.733 243.764 366.496 243.04 366.39C242.375 366.272 241.727 366.074 241.11 365.8C240.54 365.554 240.054 365.147 239.71 364.63C239.485 364.259 239.367 363.834 239.37 363.4C239.385 362.966 239.501 362.542 239.709 362.162C239.918 361.782 240.212 361.456 240.57 361.21C241.329 360.682 242.235 360.406 243.16 360.42C244.347 360.477 245.488 360.895 246.43 361.62C246.514 361.675 246.586 361.747 246.642 361.83C246.698 361.914 246.737 362.008 246.756 362.106C246.776 362.205 246.776 362.306 246.756 362.405C246.736 362.503 246.696 362.597 246.64 362.68C246.587 362.766 246.517 362.841 246.435 362.9C246.352 362.959 246.258 363 246.159 363.022C246.06 363.043 245.958 363.044 245.858 363.025C245.759 363.006 245.664 362.967 245.58 362.91C244.895 362.337 244.05 361.988 243.16 361.91C242.561 361.902 241.974 362.08 241.48 362.42C241.318 362.52 241.181 362.658 241.082 362.821C240.983 362.985 240.924 363.169 240.91 363.36C240.901 363.508 240.939 363.655 241.02 363.78C241.125 363.936 241.261 364.069 241.42 364.17C241.998 364.509 242.637 364.733 243.3 364.83C244.012 364.957 244.707 365.169 245.37 365.46C245.977 365.728 246.497 366.161 246.87 366.71C247.103 367.093 247.227 367.532 247.23 367.98C247.216 368.443 247.092 368.896 246.867 369.301C246.643 369.706 246.325 370.052 245.94 370.31C245.126 370.88 244.153 371.178 243.16 371.16C241.75 371.096 240.4 370.568 239.32 369.66C239.176 369.529 239.084 369.351 239.062 369.158C239.04 368.964 239.089 368.77 239.2 368.61Z" fill="#263238"/>
<path d="M258.57 361.54V370.39C258.565 370.61 258.474 370.82 258.318 370.975C258.161 371.129 257.95 371.217 257.73 371.22C257.51 371.22 257.299 371.132 257.143 370.977C256.987 370.821 256.9 370.61 256.9 370.39V364.08L254.74 367.08C254.664 367.186 254.563 367.273 254.447 367.332C254.33 367.391 254.201 367.422 254.07 367.42C253.936 367.421 253.804 367.392 253.684 367.332C253.564 367.273 253.46 367.187 253.38 367.08L251.23 364.08V370.39C251.23 370.61 251.143 370.821 250.987 370.977C250.831 371.132 250.62 371.22 250.4 371.22C250.18 371.22 249.969 371.132 249.813 370.977C249.657 370.821 249.57 370.61 249.57 370.39V361.54C249.57 361.322 249.656 361.114 249.81 360.96C249.964 360.806 250.173 360.72 250.39 360.72C250.519 360.721 250.646 360.752 250.761 360.811C250.875 360.87 250.974 360.955 251.05 361.06L254.05 365.2L257.05 361.06C257.126 360.953 257.227 360.867 257.343 360.808C257.46 360.748 257.589 360.718 257.72 360.72C257.94 360.72 258.152 360.805 258.311 360.958C258.469 361.111 258.562 361.32 258.57 361.54Z" fill="#263238"/>
<path d="M262.3 361.54C262.299 361.431 262.319 361.323 262.361 361.222C262.402 361.121 262.463 361.03 262.541 360.953C262.618 360.877 262.71 360.817 262.812 360.777C262.913 360.737 263.021 360.717 263.13 360.72C263.239 360.719 263.347 360.739 263.448 360.779C263.55 360.82 263.642 360.88 263.72 360.956C263.798 361.032 263.86 361.123 263.903 361.223C263.946 361.323 263.969 361.431 263.97 361.54V370.39C263.967 370.611 263.878 370.822 263.72 370.977C263.563 371.133 263.351 371.22 263.13 371.22C263.021 371.221 262.912 371.201 262.811 371.16C262.709 371.118 262.617 371.057 262.54 370.98C262.463 370.903 262.402 370.81 262.36 370.709C262.319 370.608 262.299 370.499 262.3 370.39V361.54Z" fill="#263238"/>
<path d="M273.19 362.38H270.81V370.38C270.823 370.496 270.811 370.613 270.775 370.724C270.74 370.835 270.681 370.938 270.603 371.025C270.525 371.112 270.43 371.181 270.324 371.229C270.217 371.276 270.102 371.301 269.985 371.301C269.868 371.301 269.753 371.276 269.646 371.229C269.54 371.181 269.445 371.112 269.367 371.025C269.289 370.938 269.23 370.835 269.195 370.724C269.159 370.613 269.147 370.496 269.16 370.38V362.38H266.79C266.569 362.377 266.358 362.288 266.203 362.13C266.047 361.973 265.96 361.761 265.96 361.54C265.959 361.431 265.979 361.323 266.021 361.222C266.062 361.121 266.123 361.03 266.201 360.953C266.278 360.877 266.37 360.817 266.472 360.777C266.573 360.737 266.681 360.717 266.79 360.72H273.19C273.408 360.72 273.618 360.806 273.773 360.96C273.929 361.113 274.017 361.322 274.02 361.54C274.017 361.76 273.93 361.971 273.775 362.128C273.62 362.284 273.41 362.375 273.19 362.38Z" fill="#263238"/>
<path d="M276.49 370.39V361.54C276.489 361.431 276.509 361.323 276.551 361.222C276.592 361.121 276.653 361.03 276.731 360.953C276.808 360.877 276.9 360.817 277.002 360.777C277.103 360.737 277.211 360.717 277.32 360.72C277.429 360.719 277.537 360.739 277.638 360.779C277.74 360.82 277.832 360.88 277.91 360.956C277.988 361.032 278.05 361.123 278.093 361.223C278.136 361.323 278.159 361.431 278.16 361.54V365.14H282V361.54C281.999 361.431 282.019 361.323 282.061 361.222C282.102 361.121 282.163 361.03 282.241 360.953C282.318 360.877 282.41 360.817 282.512 360.777C282.613 360.737 282.721 360.717 282.83 360.72C282.939 360.719 283.047 360.739 283.148 360.779C283.25 360.82 283.342 360.88 283.42 360.956C283.498 361.032 283.56 361.123 283.603 361.223C283.646 361.323 283.669 361.431 283.67 361.54V370.39C283.67 370.5 283.648 370.609 283.606 370.71C283.564 370.811 283.502 370.903 283.423 370.98C283.345 371.058 283.253 371.119 283.151 371.16C283.049 371.201 282.94 371.221 282.83 371.22C282.721 371.221 282.612 371.201 282.511 371.16C282.41 371.118 282.317 371.057 282.24 370.98C282.163 370.903 282.102 370.81 282.06 370.709C282.019 370.608 281.999 370.499 282 370.39V366.79H278.12V370.39C278.12 370.5 278.098 370.609 278.056 370.71C278.014 370.811 277.952 370.903 277.873 370.98C277.795 371.058 277.703 371.119 277.601 371.16C277.499 371.201 277.39 371.221 277.28 371.22C277.066 371.212 276.864 371.121 276.716 370.966C276.568 370.811 276.487 370.604 276.49 370.39Z" fill="#263238"/>
<path d="M193.79 393.12C193.789 393.055 193.8 392.99 193.824 392.929C193.848 392.869 193.884 392.814 193.93 392.767C193.976 392.72 194.03 392.683 194.09 392.658C194.15 392.633 194.215 392.62 194.28 392.62C194.414 392.62 194.542 392.672 194.637 392.766C194.733 392.859 194.787 392.986 194.79 393.12V398.43C194.789 398.496 194.775 398.56 194.748 398.621C194.722 398.681 194.684 398.735 194.637 398.781C194.589 398.826 194.533 398.862 194.472 398.886C194.411 398.91 194.346 398.921 194.28 398.92C194.215 398.921 194.151 398.91 194.091 398.885C194.031 398.861 193.976 398.825 193.931 398.779C193.885 398.734 193.849 398.679 193.825 398.619C193.8 398.559 193.789 398.495 193.79 398.43V393.12Z" fill="#263238"/>
<path d="M196.47 398.43V393.12C196.469 393.055 196.48 392.99 196.504 392.929C196.528 392.869 196.564 392.814 196.61 392.767C196.656 392.72 196.71 392.683 196.77 392.658C196.83 392.633 196.895 392.62 196.96 392.62H198C198.835 392.62 199.637 392.952 200.227 393.543C200.818 394.133 201.15 394.934 201.15 395.77C201.15 396.605 200.818 397.407 200.227 397.997C199.637 398.588 198.835 398.92 198 398.92H197C196.932 398.927 196.863 398.92 196.799 398.898C196.734 398.877 196.674 398.841 196.624 398.795C196.574 398.749 196.534 398.692 196.508 398.629C196.481 398.566 196.468 398.498 196.47 398.43ZM197.47 397.92H198C198.57 397.92 199.117 397.693 199.52 397.29C199.923 396.887 200.15 396.34 200.15 395.77C200.15 395.2 199.923 394.653 199.52 394.25C199.117 393.846 198.57 393.62 198 393.62H197.44L197.47 397.92Z" fill="#263238"/>
<path d="M206.63 398.43C206.627 398.559 206.575 398.682 206.484 398.774C206.392 398.865 206.269 398.917 206.14 398.92C206.075 398.921 206.011 398.91 205.951 398.885C205.891 398.861 205.836 398.825 205.791 398.779C205.745 398.734 205.709 398.679 205.685 398.619C205.66 398.559 205.649 398.495 205.65 398.43V393.2C205.645 393.12 205.661 393.04 205.696 392.968C205.731 392.897 205.784 392.835 205.85 392.79C205.954 392.714 206.083 392.682 206.211 392.701C206.338 392.719 206.452 392.787 206.53 392.89L209.44 396.89V393.2C209.44 393.072 209.49 392.949 209.58 392.857C209.67 392.765 209.792 392.713 209.92 392.71C210.05 392.712 210.174 392.764 210.267 392.856C210.36 392.947 210.415 393.07 210.42 393.2V398.43C210.417 398.561 210.364 398.685 210.27 398.777C210.177 398.869 210.051 398.92 209.92 398.92C209.849 398.919 209.779 398.902 209.715 398.871C209.651 398.84 209.595 398.795 209.55 398.74V398.69L206.67 394.69L206.63 398.43Z" fill="#263238"/>
<path d="M212.89 398.27C212.487 397.839 212.265 397.27 212.27 396.68C212.274 396.098 212.495 395.538 212.89 395.11C213.086 394.893 213.325 394.72 213.592 394.601C213.859 394.483 214.148 394.421 214.44 394.42C214.725 394.418 215.008 394.478 215.267 394.597C215.526 394.717 215.756 394.892 215.94 395.11C216.353 395.528 216.583 396.093 216.58 396.68C216.586 396.974 216.532 397.267 216.422 397.54C216.312 397.813 216.148 398.062 215.94 398.27C215.753 398.483 215.522 398.654 215.263 398.772C215.005 398.889 214.724 398.95 214.44 398.95C214.149 398.949 213.861 398.888 213.594 398.771C213.328 398.654 213.088 398.484 212.89 398.27ZM213.25 396.68C213.233 397.043 213.35 397.399 213.58 397.68C213.813 397.897 214.121 398.016 214.44 398.01C214.749 398.01 215.046 397.892 215.27 397.68C215.51 397.404 215.636 397.046 215.62 396.68C215.626 396.337 215.501 396.004 215.27 395.75C215.045 395.536 214.75 395.411 214.44 395.4C214.12 395.406 213.813 395.531 213.58 395.75C213.36 396.009 213.243 396.34 213.25 396.68Z" fill="#263238"/>
<path d="M218.49 397.65C218.578 397.65 218.665 397.667 218.746 397.701C218.828 397.735 218.902 397.784 218.964 397.846C219.026 397.908 219.075 397.982 219.109 398.064C219.143 398.145 219.16 398.232 219.16 398.32C219.16 398.408 219.143 398.495 219.109 398.576C219.075 398.658 219.026 398.731 218.964 398.794C218.902 398.856 218.828 398.905 218.746 398.939C218.665 398.973 218.578 398.99 218.49 398.99C218.402 398.99 218.315 398.973 218.234 398.939C218.152 398.905 218.078 398.856 218.016 398.794C217.954 398.731 217.905 398.658 217.871 398.576C217.837 398.495 217.82 398.408 217.82 398.32C217.82 398.232 217.837 398.145 217.871 398.064C217.905 397.982 217.954 397.908 218.016 397.846C218.078 397.784 218.152 397.735 218.234 397.701C218.315 397.667 218.402 397.65 218.49 397.65Z" fill="#263238"/>
<path d="M224.31 393.12V398.43C224.31 398.495 224.297 398.56 224.272 398.62C224.247 398.68 224.21 398.734 224.163 398.78C224.116 398.826 224.061 398.862 224.001 398.886C223.94 398.91 223.875 398.921 223.81 398.92C223.745 398.921 223.68 398.91 223.619 398.886C223.559 398.862 223.504 398.826 223.457 398.78C223.41 398.734 223.373 398.68 223.348 398.62C223.323 398.56 223.31 398.495 223.31 398.43V394L222.95 394.21C222.895 394.244 222.833 394.266 222.769 394.275C222.705 394.284 222.639 394.28 222.577 394.263C222.514 394.246 222.455 394.217 222.404 394.177C222.353 394.137 222.311 394.087 222.28 394.03C222.245 393.975 222.222 393.914 222.211 393.849C222.201 393.785 222.203 393.72 222.218 393.656C222.232 393.593 222.26 393.533 222.298 393.481C222.336 393.428 222.384 393.384 222.44 393.35L223.55 392.69H223.84C223.84 392.69 223.84 392.69 223.89 392.69H223.94C223.94 392.69 223.94 392.69 223.94 392.74C223.935 392.76 223.935 392.78 223.94 392.8L224.31 393.12Z" fill="#263238"/>
<path d="M229.53 398.43C229.53 398.495 229.517 398.56 229.492 398.62C229.467 398.68 229.43 398.734 229.383 398.78C229.336 398.826 229.281 398.862 229.221 398.886C229.16 398.91 229.095 398.921 229.03 398.92H225.83C225.76 398.922 225.691 398.909 225.627 398.882C225.563 398.854 225.506 398.812 225.46 398.76C225.368 398.666 225.317 398.541 225.317 398.41C225.317 398.279 225.368 398.153 225.46 398.06L228.13 395.65C228.292 395.489 228.404 395.283 228.451 395.059C228.498 394.835 228.478 394.602 228.394 394.39C228.31 394.177 228.165 393.993 227.978 393.862C227.791 393.73 227.569 393.657 227.34 393.65C227.052 393.652 226.775 393.759 226.56 393.95L226.28 394.2C226.235 394.248 226.181 394.286 226.121 394.312C226.06 394.338 225.996 394.351 225.93 394.351C225.864 394.351 225.8 394.338 225.739 394.312C225.679 394.286 225.625 394.248 225.58 394.2C225.533 394.154 225.496 394.1 225.471 394.04C225.446 393.98 225.433 393.915 225.433 393.85C225.433 393.785 225.446 393.72 225.471 393.66C225.496 393.6 225.533 393.546 225.58 393.5L225.86 393.25C226.251 392.886 226.766 392.686 227.3 392.69C227.603 392.692 227.901 392.757 228.178 392.879C228.455 393.001 228.704 393.178 228.91 393.4C229.101 393.61 229.248 393.856 229.344 394.124C229.439 394.391 229.481 394.675 229.466 394.958C229.451 395.242 229.38 395.52 229.257 395.776C229.134 396.032 228.962 396.261 228.75 396.45L227.05 397.99H229C229.128 397.981 229.254 398.022 229.353 398.104C229.451 398.186 229.515 398.303 229.53 398.43Z" fill="#263238"/>
<path d="M235.31 397.25C235.31 397.315 235.297 397.38 235.272 397.44C235.247 397.5 235.21 397.554 235.163 397.6C235.116 397.646 235.061 397.682 235.001 397.706C234.94 397.73 234.875 397.741 234.81 397.74H234.72V398.43C234.72 398.495 234.707 398.56 234.682 398.62C234.657 398.68 234.62 398.734 234.573 398.78C234.526 398.826 234.471 398.862 234.411 398.886C234.35 398.91 234.285 398.921 234.22 398.92C234.155 398.921 234.091 398.91 234.031 398.885C233.971 398.861 233.916 398.825 233.87 398.779C233.825 398.734 233.789 398.679 233.765 398.619C233.74 398.559 233.729 398.495 233.73 398.43V397.74H230.89C230.781 397.747 230.673 397.711 230.59 397.64C230.537 397.601 230.492 397.551 230.459 397.494C230.426 397.437 230.405 397.373 230.397 397.307C230.39 397.242 230.396 397.175 230.415 397.112C230.435 397.049 230.467 396.99 230.51 396.94L233.84 392.8H233.89H234H234.06H234.29V392.85V392.91C234.295 392.926 234.295 392.944 234.29 392.96V396.62H234.38C234.464 396.497 234.593 396.412 234.739 396.383C234.885 396.355 235.037 396.386 235.16 396.47C235.283 396.553 235.368 396.683 235.397 396.829C235.425 396.975 235.394 397.127 235.31 397.25ZM233.73 394.53L231.94 396.75H233.73V394.53Z" fill="#263238"/>
<path d="M239.79 395.11C240.001 395.315 240.169 395.56 240.282 395.832C240.396 396.104 240.453 396.396 240.45 396.69C240.45 396.984 240.391 397.275 240.278 397.546C240.164 397.817 239.999 398.063 239.79 398.27C239.585 398.478 239.341 398.643 239.071 398.754C238.801 398.866 238.512 398.922 238.22 398.92C237.928 398.922 237.639 398.865 237.369 398.753C237.1 398.642 236.855 398.477 236.65 398.27C236.598 398.224 236.556 398.167 236.527 398.105C236.497 398.042 236.481 397.973 236.479 397.904C236.477 397.834 236.489 397.765 236.515 397.701C236.54 397.636 236.579 397.577 236.628 397.528C236.677 397.479 236.736 397.44 236.801 397.415C236.865 397.389 236.934 397.377 237.004 397.379C237.073 397.381 237.142 397.397 237.205 397.427C237.268 397.456 237.324 397.498 237.37 397.55C237.484 397.665 237.62 397.755 237.769 397.817C237.918 397.879 238.078 397.911 238.24 397.91C238.399 397.91 238.555 397.878 238.701 397.816C238.847 397.754 238.979 397.664 239.09 397.55C239.204 397.438 239.294 397.304 239.356 397.156C239.418 397.008 239.45 396.85 239.45 396.69C239.454 396.529 239.424 396.37 239.362 396.221C239.3 396.073 239.207 395.94 239.09 395.83C238.981 395.715 238.849 395.625 238.702 395.565C238.556 395.504 238.398 395.475 238.24 395.48C238.079 395.476 237.918 395.505 237.769 395.565C237.619 395.625 237.483 395.715 237.37 395.83C237.274 395.925 237.145 395.979 237.01 395.979C236.875 395.979 236.746 395.925 236.65 395.83L236.56 395.71C236.562 395.69 236.562 395.67 236.56 395.65C236.55 395.597 236.55 395.543 236.56 395.49L236.83 393.16C236.856 393.014 236.939 392.885 237.06 392.8C237.13 392.759 237.209 392.738 237.29 392.74H239.95C240.066 392.763 240.169 392.826 240.244 392.917C240.319 393.008 240.36 393.122 240.36 393.24C240.36 393.358 240.319 393.472 240.244 393.563C240.169 393.654 240.066 393.717 239.95 393.74H237.73L237.63 394.63C237.826 394.578 238.027 394.551 238.23 394.55C238.803 394.525 239.363 394.726 239.79 395.11Z" fill="#263238"/>
<path d="M245.24 395.11C245.45 395.316 245.616 395.562 245.729 395.833C245.843 396.105 245.901 396.396 245.9 396.69C245.895 397.283 245.658 397.85 245.24 398.27C245.033 398.478 244.787 398.643 244.516 398.755C244.244 398.866 243.953 398.922 243.66 398.92C243.368 398.922 243.079 398.866 242.809 398.754C242.539 398.643 242.295 398.478 242.09 398.27C242.04 398.224 242.001 398.168 241.974 398.106C241.946 398.044 241.932 397.978 241.932 397.91C241.932 397.842 241.946 397.775 241.974 397.713C242.001 397.651 242.04 397.596 242.09 397.55C242.186 397.455 242.315 397.401 242.45 397.401C242.585 397.401 242.714 397.455 242.81 397.55C242.921 397.665 243.055 397.757 243.203 397.818C243.351 397.88 243.51 397.911 243.67 397.91C243.83 397.91 243.989 397.879 244.136 397.817C244.284 397.755 244.418 397.664 244.53 397.55C244.756 397.32 244.884 397.012 244.89 396.69C244.892 396.53 244.86 396.371 244.799 396.223C244.737 396.075 244.645 395.941 244.53 395.83C244.42 395.714 244.286 395.623 244.138 395.563C243.989 395.502 243.83 395.474 243.67 395.48C243.51 395.476 243.351 395.505 243.203 395.565C243.055 395.625 242.922 395.715 242.81 395.83C242.714 395.925 242.585 395.979 242.45 395.979C242.315 395.979 242.186 395.925 242.09 395.83L241.99 395.71C241.992 395.69 241.992 395.67 241.99 395.65C241.98 395.597 241.98 395.543 241.99 395.49L242.26 393.16C242.269 393.088 242.293 393.018 242.331 392.956C242.369 392.894 242.42 392.841 242.48 392.8C242.554 392.76 242.636 392.74 242.72 392.74H245.37C245.444 392.725 245.52 392.727 245.594 392.745C245.667 392.763 245.735 392.798 245.794 392.845C245.852 392.893 245.899 392.953 245.931 393.022C245.964 393.09 245.981 393.164 245.981 393.24C245.981 393.315 245.964 393.39 245.931 393.458C245.899 393.526 245.852 393.587 245.794 393.634C245.735 393.682 245.667 393.717 245.594 393.735C245.52 393.753 245.444 393.755 245.37 393.74H243.16L243.05 394.63C243.246 394.579 243.448 394.553 243.65 394.55C244.233 394.519 244.805 394.721 245.24 395.11Z" fill="#263238"/>
<path d="M251.58 396.78C251.583 397.155 251.489 397.524 251.306 397.852C251.124 398.179 250.859 398.453 250.538 398.647C250.217 398.842 249.851 398.949 249.476 398.958C249.101 398.968 248.73 398.88 248.4 398.703C248.069 398.526 247.791 398.266 247.591 397.948C247.392 397.631 247.278 397.267 247.262 396.892C247.246 396.517 247.328 396.145 247.499 395.811C247.671 395.478 247.926 395.195 248.24 394.99C248.044 394.735 247.939 394.422 247.94 394.1C247.94 393.702 248.098 393.321 248.379 393.039C248.661 392.758 249.042 392.6 249.44 392.6C249.838 392.6 250.219 392.758 250.501 393.039C250.782 393.321 250.94 393.702 250.94 394.1C250.942 394.422 250.836 394.735 250.64 394.99C250.931 395.188 251.17 395.455 251.334 395.768C251.497 396.08 251.582 396.427 251.58 396.78ZM250.58 396.78C250.58 396.471 250.458 396.175 250.241 395.956C250.024 395.737 249.729 395.613 249.42 395.61C249.258 395.595 249.095 395.614 248.94 395.666C248.786 395.717 248.644 395.801 248.524 395.91C248.404 396.02 248.307 396.153 248.242 396.302C248.176 396.451 248.142 396.612 248.142 396.775C248.142 396.938 248.176 397.099 248.242 397.248C248.307 397.396 248.404 397.53 248.524 397.64C248.644 397.749 248.786 397.833 248.94 397.884C249.095 397.936 249.258 397.955 249.42 397.94C249.573 397.941 249.725 397.912 249.867 397.855C250.009 397.797 250.138 397.712 250.247 397.604C250.356 397.496 250.442 397.368 250.501 397.226C250.56 397.085 250.59 396.933 250.59 396.78H250.58ZM248.91 394.1C248.908 394.201 248.936 394.301 248.991 394.386C249.046 394.471 249.125 394.538 249.218 394.578C249.311 394.618 249.414 394.63 249.513 394.611C249.613 394.593 249.705 394.545 249.777 394.474C249.849 394.403 249.899 394.312 249.919 394.213C249.94 394.114 249.93 394.011 249.892 393.917C249.854 393.823 249.788 393.743 249.704 393.687C249.62 393.63 249.521 393.6 249.42 393.6C249.288 393.603 249.163 393.656 249.069 393.749C248.976 393.842 248.923 393.968 248.92 394.1H248.91Z" fill="#263238"/>
<path d="M257.1 398.43C257.101 398.495 257.09 398.559 257.065 398.619C257.041 398.679 257.005 398.734 256.96 398.779C256.914 398.825 256.859 398.861 256.799 398.885C256.739 398.91 256.675 398.921 256.61 398.92H253.4C253.331 398.921 253.262 398.907 253.198 398.88C253.134 398.852 253.077 398.811 253.03 398.76C252.983 398.714 252.946 398.66 252.921 398.6C252.896 398.54 252.883 398.475 252.883 398.41C252.883 398.345 252.896 398.28 252.921 398.22C252.946 398.16 252.983 398.106 253.03 398.06L255.69 395.65C255.917 395.44 256.052 395.15 256.067 394.841C256.082 394.533 255.975 394.231 255.77 394C255.662 393.879 255.53 393.782 255.381 393.716C255.233 393.651 255.072 393.618 254.91 393.62C254.622 393.62 254.344 393.727 254.13 393.92L253.85 394.17C253.805 394.218 253.751 394.256 253.691 394.282C253.63 394.308 253.566 394.321 253.5 394.321C253.434 394.321 253.37 394.308 253.309 394.282C253.249 394.256 253.195 394.218 253.15 394.17C253.103 394.124 253.066 394.07 253.041 394.01C253.016 393.95 253.003 393.885 253.003 393.82C253.003 393.755 253.016 393.69 253.041 393.63C253.066 393.57 253.103 393.516 253.15 393.47L253.43 393.22C253.826 392.857 254.343 392.657 254.88 392.66C255.181 392.661 255.479 392.725 255.754 392.847C256.03 392.969 256.277 393.147 256.48 393.37C256.864 393.794 257.065 394.354 257.036 394.926C257.008 395.498 256.754 396.035 256.33 396.42L254.63 397.96H256.55C256.617 397.953 256.685 397.96 256.75 397.98C256.814 398 256.874 398.033 256.926 398.077C256.977 398.121 257.019 398.175 257.049 398.236C257.079 398.296 257.096 398.362 257.1 398.43Z" fill="#263238"/>
<path d="M262.24 393.31L260 398.63C259.964 398.721 259.9 398.798 259.817 398.85C259.735 398.902 259.638 398.927 259.54 398.92C259.477 398.934 259.413 398.934 259.35 398.92C259.232 398.865 259.138 398.768 259.088 398.648C259.038 398.527 259.035 398.392 259.08 398.27L261.03 393.65H258.7C258.569 393.647 258.445 393.593 258.353 393.5C258.261 393.406 258.21 393.281 258.21 393.15C258.209 393.085 258.22 393.02 258.244 392.959C258.268 392.899 258.304 392.844 258.35 392.797C258.396 392.75 258.45 392.713 258.51 392.688C258.57 392.663 258.635 392.65 258.7 392.65H261.88C261.945 392.669 262.008 392.692 262.07 392.72C262.07 392.72 262.07 392.72 262.07 392.77C262.08 392.836 262.08 392.904 262.07 392.97L262.24 393.31Z" fill="#263238"/>
<path d="M266.72 395.1C266.929 395.305 267.095 395.549 267.208 395.818C267.321 396.088 267.38 396.378 267.38 396.67C267.385 397.115 267.257 397.551 267.013 397.923C266.768 398.294 266.418 398.584 266.007 398.755C265.596 398.926 265.144 398.97 264.708 398.882C264.272 398.794 263.872 398.577 263.56 398.26C263.508 398.214 263.466 398.157 263.437 398.094C263.407 398.032 263.391 397.963 263.389 397.894C263.387 397.824 263.399 397.755 263.425 397.691C263.45 397.626 263.489 397.567 263.538 397.518C263.587 397.469 263.646 397.43 263.711 397.405C263.775 397.379 263.844 397.367 263.914 397.369C263.983 397.371 264.052 397.387 264.115 397.417C264.178 397.446 264.234 397.488 264.28 397.54C264.51 397.764 264.819 397.89 265.14 397.89C265.461 397.889 265.769 397.764 266 397.54C266.116 397.427 266.208 397.292 266.27 397.142C266.332 396.992 266.362 396.832 266.36 396.67C266.363 396.511 266.332 396.353 266.27 396.207C266.208 396.06 266.116 395.929 266 395.82C265.775 395.592 265.47 395.463 265.15 395.46C265.08 395.463 265.011 395.45 264.947 395.423C264.882 395.395 264.825 395.353 264.78 395.3C264.685 395.204 264.631 395.075 264.631 394.94C264.631 394.805 264.685 394.676 264.78 394.58L265.7 393.64H264.24C264.173 393.64 264.108 393.627 264.046 393.601C263.985 393.575 263.929 393.537 263.883 393.49C263.836 393.442 263.8 393.386 263.775 393.324C263.751 393.263 263.739 393.196 263.74 393.13C263.739 393.063 263.751 392.997 263.775 392.936C263.8 392.874 263.836 392.817 263.883 392.77C263.929 392.722 263.985 392.685 264.046 392.659C264.108 392.633 264.173 392.62 264.24 392.62H266.9C267.035 392.62 267.165 392.674 267.261 392.769C267.356 392.865 267.41 392.995 267.41 393.13C267.407 393.213 267.386 393.295 267.35 393.37L267.26 393.5L266.12 394.67C266.347 394.771 266.551 394.918 266.72 395.1Z" fill="#263238"/>
<path d="M268.76 394.8C268.777 394.25 269 393.727 269.385 393.334C269.77 392.941 270.289 392.708 270.839 392.68C271.388 392.653 271.928 392.833 272.35 393.185C272.773 393.537 273.048 394.035 273.12 394.58C273.12 394.75 273.12 394.93 273.12 395.1C273.127 395.728 273.018 396.351 272.8 396.94C272.588 397.564 272.182 398.104 271.64 398.48C271.238 398.744 270.771 398.893 270.29 398.91C270.158 398.913 270.03 398.864 269.933 398.775C269.836 398.685 269.778 398.562 269.77 398.43C269.77 398.297 269.82 398.169 269.912 398.072C270.003 397.976 270.127 397.918 270.26 397.91C270.559 397.905 270.85 397.814 271.1 397.65C271.339 397.49 271.535 397.274 271.67 397.02L271.79 396.79C271.516 396.911 271.219 396.972 270.92 396.97C270.348 396.962 269.801 396.731 269.398 396.325C268.994 395.92 268.765 395.372 268.76 394.8ZM269.76 394.8C269.745 394.965 269.764 395.131 269.817 395.288C269.87 395.445 269.954 395.589 270.066 395.711C270.177 395.833 270.313 395.931 270.465 395.998C270.616 396.064 270.78 396.099 270.945 396.099C271.11 396.099 271.274 396.064 271.425 395.998C271.577 395.931 271.713 395.833 271.824 395.711C271.936 395.589 272.02 395.445 272.073 395.288C272.126 395.131 272.145 394.965 272.13 394.8C272.103 394.504 271.966 394.23 271.747 394.03C271.528 393.83 271.242 393.719 270.945 393.719C270.648 393.719 270.362 393.83 270.143 394.03C269.924 394.23 269.787 394.504 269.76 394.8Z" fill="#263238"/>
<path d="M274.53 395.77C274.519 395.008 274.735 394.259 275.15 393.62C275.32 393.325 275.563 393.078 275.855 392.903C276.147 392.728 276.48 392.631 276.82 392.62C277.161 392.631 277.493 392.728 277.785 392.903C278.077 393.078 278.32 393.325 278.49 393.62C278.883 394.268 279.09 395.012 279.09 395.77C279.09 396.528 278.883 397.272 278.49 397.92C278.315 398.211 278.071 398.454 277.78 398.628C277.489 398.803 277.159 398.903 276.82 398.92C276.48 398.909 276.147 398.812 275.855 398.637C275.563 398.462 275.32 398.215 275.15 397.92C274.735 397.281 274.519 396.532 274.53 395.77ZM278.09 395.77C278.1 395.207 277.951 394.652 277.66 394.17C277.581 394.012 277.462 393.878 277.314 393.782C277.167 393.685 276.996 393.629 276.82 393.62C276.643 393.635 276.472 393.693 276.322 393.789C276.173 393.885 276.048 394.016 275.96 394.17C275.678 394.656 275.53 395.208 275.53 395.77C275.53 396.332 275.678 396.884 275.96 397.37C276.05 397.523 276.174 397.653 276.324 397.749C276.473 397.844 276.643 397.903 276.82 397.92C276.995 397.905 277.163 397.847 277.309 397.751C277.456 397.655 277.576 397.524 277.66 397.37C277.951 396.888 278.1 396.333 278.09 395.77Z" fill="#263238"/>
<path d="M285.14 396.78C285.145 397.155 285.052 397.526 284.871 397.854C284.689 398.183 284.425 398.458 284.104 398.654C283.784 398.849 283.418 398.957 283.042 398.968C282.667 398.979 282.296 398.892 281.964 398.715C281.633 398.539 281.353 398.279 281.153 397.961C280.953 397.644 280.839 397.279 280.822 396.904C280.806 396.529 280.887 396.157 281.059 395.823C281.23 395.489 281.486 395.205 281.8 395C281.604 394.745 281.498 394.432 281.5 394.11C281.5 393.712 281.658 393.331 281.939 393.049C282.221 392.768 282.602 392.61 283 392.61C283.398 392.61 283.779 392.768 284.061 393.049C284.342 393.331 284.5 393.712 284.5 394.11C284.502 394.432 284.396 394.745 284.2 395C284.49 395.197 284.727 395.463 284.891 395.773C285.055 396.083 285.14 396.429 285.14 396.78ZM284.14 396.78C284.137 396.47 284.013 396.174 283.794 395.956C283.576 395.737 283.279 395.613 282.97 395.61C282.808 395.595 282.645 395.614 282.49 395.666C282.336 395.717 282.194 395.801 282.074 395.91C281.953 396.02 281.857 396.153 281.792 396.302C281.726 396.451 281.692 396.612 281.692 396.775C281.692 396.938 281.726 397.099 281.792 397.248C281.857 397.396 281.953 397.53 282.074 397.64C282.194 397.749 282.336 397.833 282.49 397.884C282.645 397.936 282.808 397.955 282.97 397.94C283.124 397.943 283.278 397.915 283.422 397.858C283.565 397.801 283.696 397.716 283.807 397.608C283.917 397.5 284.006 397.371 284.066 397.229C284.127 397.087 284.159 396.934 284.16 396.78H284.14ZM282.46 394.1C282.458 394.201 282.486 394.301 282.541 394.386C282.596 394.471 282.675 394.538 282.768 394.578C282.861 394.618 282.964 394.63 283.063 394.611C283.163 394.593 283.255 394.545 283.327 394.474C283.399 394.403 283.449 394.312 283.469 394.213C283.49 394.114 283.48 394.011 283.442 393.917C283.404 393.823 283.338 393.743 283.254 393.687C283.17 393.63 283.071 393.6 282.97 393.6C282.84 393.605 282.717 393.66 282.626 393.753C282.535 393.846 282.482 393.97 282.48 394.1H282.46Z" fill="#263238"/>
<path d="M197.28 405.47H194.04V425.75H197.28V405.47Z" fill="#263238"/>
<path d="M207.54 405.47H204.3V425.75H207.54V405.47Z" fill="#263238"/>
<path d="M216.17 405.47H212.93V425.75H216.17V405.47Z" fill="#263238"/>
<path d="M220.32 405.47H217.08V425.75H220.32V405.47Z" fill="#263238"/>
<path d="M201.79 405.47H200.98V425.75H201.79V405.47Z" fill="#263238"/>
<path d="M284.76 405.47H283.95V425.75H284.76V405.47Z" fill="#263238"/>
<path d="M211.93 405.47H211.12V425.75H211.93V405.47Z" fill="#263238"/>
<path d="M234.7 405.47H233.89V425.75H234.7V405.47Z" fill="#263238"/>
<path d="M203.37 405.47H202.56V425.75H203.37V405.47Z" fill="#263238"/>
<path d="M200.01 405.47H198.39V425.75H200.01V405.47Z" fill="#263238"/>
<path d="M241.62 405.47H238.38V425.75H241.62V405.47Z" fill="#263238"/>
<path d="M246.13 405.47H245.32V425.75H246.13V405.47Z" fill="#263238"/>
<path d="M247.71 405.47H246.9V425.75H247.71V405.47Z" fill="#263238"/>
<path d="M244.35 405.47H242.73V425.75H244.35V405.47Z" fill="#263238"/>
<path d="M250.26 405.47H248.64V425.75H250.26V405.47Z" fill="#263238"/>
<path d="M252.87 405.47H251.25V425.75H252.87V405.47Z" fill="#263238"/>
<path d="M232.87 405.47H229.63V425.75H232.87V405.47Z" fill="#263238"/>
<path d="M257.15 405.47H253.91V425.75H257.15V405.47Z" fill="#263238"/>
<path d="M227.12 405.47H226.31V425.75H227.12V405.47Z" fill="#263238"/>
<path d="M228.7 405.47H227.89V425.75H228.7V405.47Z" fill="#263238"/>
<path d="M225.34 405.47H223.72V425.75H225.34V405.47Z" fill="#263238"/>
<path d="M210.11 405.47H208.49V425.75H210.11V405.47Z" fill="#263238"/>
<path d="M222.81 405.47H221.19V425.75H222.81V405.47Z" fill="#263238"/>
<path d="M237.24 405.47H235.62V425.75H237.24V405.47Z" fill="#263238"/>
<path d="M258.97 405.47H258.16V425.75H258.97V405.47Z" fill="#263238"/>
<path d="M265.89 405.47H262.65V425.75H265.89V405.47Z" fill="#263238"/>
<path d="M276.16 405.47H272.92V425.75H276.16V405.47Z" fill="#263238"/>
<path d="M280.37 405.47H277.13V425.75H280.37V405.47Z" fill="#263238"/>
<path d="M270.4 405.47H269.59V425.75H270.4V405.47Z" fill="#263238"/>
<path d="M271.98 405.47H271.17V425.75H271.98V405.47Z" fill="#263238"/>
<path d="M268.63 405.47H267.01V425.75H268.63V405.47Z" fill="#263238"/>
<path d="M261.52 405.47H259.9V425.75H261.52V405.47Z" fill="#263238"/>
<path d="M283.02 405.47H281.4V425.75H283.02V405.47Z" fill="#263238"/>
<path d="M259.7 376.96H218.16V379.25H259.7V376.96Z" fill="#263238"/>
<path d="M446.07 427.48C446.075 427.637 446.044 427.793 445.978 427.935C445.912 428.078 445.813 428.203 445.69 428.3C438.69 434.49 424.6 436.63 410.02 436.63H390.46C405.04 436.63 419.09 434.49 426.15 428.3C426.27 428.201 426.364 428.075 426.427 427.932C426.489 427.79 426.518 427.635 426.51 427.48C426.45 424.93 419.7 419.66 411.89 413.55C397.58 402.38 378 387.07 378 372.55C378 358.55 386.78 335.8 396.92 309.44C411.6 271.29 428.26 228.05 425.05 195.28C422.18 165.94 384.05 100.35 349 73.4699C341.33 67.5899 334.92 64.6299 329.86 64.6299H349.41C354.47 64.6299 360.89 67.6299 368.56 73.4699C403.61 100.35 441.73 165.94 444.56 195.28C447.77 228.05 431.12 271.28 416.43 309.44C406.28 335.8 397.52 358.56 397.52 372.55C397.52 387.1 417.1 402.41 431.4 413.55C439.25 419.66 446 424.93 446.07 427.48Z" fill="#21F272"/>
<g opacity="0.2">
<path d="M446.07 427.48C446.075 427.637 446.044 427.793 445.978 427.935C445.912 428.078 445.813 428.203 445.69 428.3C438.69 434.49 424.6 436.63 410.02 436.63H390.46C405.04 436.63 419.09 434.49 426.15 428.3C426.27 428.201 426.364 428.075 426.427 427.932C426.489 427.79 426.518 427.635 426.51 427.48C426.45 424.93 419.7 419.66 411.89 413.55C397.58 402.38 378 387.07 378 372.55C378 358.55 386.78 335.8 396.92 309.44C411.6 271.29 428.26 228.05 425.05 195.28C422.18 165.94 384.05 100.35 349 73.4699C341.33 67.5899 334.92 64.6299 329.86 64.6299H349.41C354.47 64.6299 360.89 67.6299 368.56 73.4699C403.61 100.35 441.73 165.94 444.56 195.28C447.77 228.05 431.12 271.28 416.43 309.44C406.28 335.8 397.52 358.56 397.52 372.55C397.52 387.1 417.1 402.41 431.4 413.55C439.25 419.66 446 424.93 446.07 427.48Z" fill="black"/>
</g>
<path d="M409.9 437.62H390.35C371.88 437.62 352.65 434.24 345.46 431.28C331.16 425.39 343.26 330.34 352.99 253.97C358.32 212.07 362.92 175.88 361.13 168.74C357.77 155.44 345.56 135.74 328.47 115.97C314.19 99.4899 300.3 87.5599 295.47 87.5599H315C319.85 87.5599 333.74 99.4899 348 115.97C365.09 135.71 377.3 155.44 380.66 168.74C382.46 175.88 377.86 212.07 372.52 253.97C362.8 330.34 350.69 425.39 364.99 431.28C372.21 434.24 391.43 437.62 409.9 437.62Z" fill="#21F272"/>
<g opacity="0.1">
<path d="M409.9 437.62H390.35C371.88 437.62 352.65 434.24 345.46 431.28C331.16 425.39 343.26 330.34 352.99 253.97C358.32 212.07 362.92 175.88 361.13 168.74C357.77 155.44 345.56 135.74 328.47 115.97C314.19 99.4899 300.3 87.5599 295.47 87.5599H315C319.85 87.5599 333.74 99.4899 348 115.97C365.09 135.71 377.3 155.44 380.66 168.74C382.46 175.88 377.86 212.07 372.52 253.97C362.8 330.34 350.69 425.39 364.99 431.28C372.21 434.24 391.43 437.62 409.9 437.62Z" fill="black"/>
</g>
<path d="M307.39 89.52H287.84C289.99 88.2159 292.318 87.229 294.75 86.59H314.3C311.868 87.229 309.54 88.2159 307.39 89.52Z" fill="#21F272"/>
<g opacity="0.2">
<path d="M307.39 89.52H287.84C289.99 88.2159 292.318 87.229 294.75 86.59H314.3C311.868 87.229 309.54 88.2159 307.39 89.52Z" fill="black"/>
</g>
<path d="M432 412.7C440.68 419.49 447 424.38 447 427.45C447.011 427.764 446.951 428.076 446.824 428.363C446.698 428.651 446.509 428.906 446.27 429.11C439.06 435.43 424.71 437.62 409.85 437.62C391.38 437.62 372.16 434.24 364.96 431.28C350.66 425.39 362.77 330.34 372.49 253.97C377.83 212.07 382.43 175.88 380.63 168.74C377.27 155.44 365.06 135.74 347.97 115.97C333.7 99.4899 319.81 87.5599 314.97 87.5599C309.18 88.7799 301.49 94.3799 296.15 98.6999C290.52 103.46 282.64 110.7 282.51 110.77L281.22 110.57C281.49 110.32 287.57 104.74 289.55 103.01C290.16 102.44 292.32 100.5 295.24 98.1099C308.6 86.7699 333.18 67.1099 346.48 63.8799C347.424 63.6561 348.39 63.5453 349.36 63.5499C354.64 63.5499 361.25 66.5499 369.08 72.5499C398.87 95.3899 442.08 160.17 445.53 195.11C448.77 228.11 432.07 271.51 417.34 309.78C407.23 336.04 398.5 358.71 398.5 372.49C398.54 386.54 417.89 401.66 432 412.7ZM445.68 428.29C445.8 428.193 445.896 428.069 445.96 427.928C446.024 427.788 446.055 427.634 446.05 427.48C445.98 424.93 439.23 419.66 431.42 413.55C417.12 402.38 397.54 387.07 397.54 372.55C397.54 358.55 406.3 335.8 416.45 309.44C431.14 271.29 447.79 228.06 444.58 195.28C441.71 165.94 403.58 100.35 368.58 73.4599C360.91 67.5899 354.49 64.6299 349.44 64.6299C348.534 64.6285 347.632 64.7326 346.75 64.9399C336.99 67.3199 320.59 79.0799 307.41 89.5499C309.56 88.2458 311.888 87.259 314.32 86.6199C326.44 86.5499 374.24 139.15 381.64 168.5C383.49 175.85 379.09 210.4 373.53 254.14C364.36 326.14 351.81 424.74 365.39 430.34C372.54 433.28 391.71 436.66 410.04 436.66C424.62 436.66 438.67 434.52 445.72 428.32" fill="#21F272"/>
<path d="M349.4 63.5499C348.43 63.5435 347.462 63.6577 346.52 63.8899C333.22 67.1299 308.64 86.7699 295.28 98.0999C292.36 100.5 290.2 102.44 289.59 103C287.59 104.73 281.52 110.32 281.25 110.57L270 103C270.6 102.44 272.77 100.5 275.68 98.0999C289.05 86.7699 313.62 67.0999 326.92 63.8899C327.862 63.6583 328.83 63.5441 329.8 63.5499H349.4Z" fill="#21F272"/>
<g opacity="0.1">
<path d="M349.4 63.5499C348.43 63.5435 347.462 63.6577 346.52 63.8899C333.22 67.1299 308.64 86.7699 295.28 98.0999C292.36 100.5 290.2 102.44 289.59 103C287.59 104.73 281.52 110.32 281.25 110.57L270 103C270.6 102.44 272.77 100.5 275.68 98.0999C289.05 86.7699 313.62 67.0999 326.92 63.8899C327.862 63.6583 328.83 63.5441 329.8 63.5499H349.4Z" fill="black"/>
</g>
<path d="M221.5 203.68C211.2 216.87 217.81 231.74 214.31 241.24C212.17 247.04 202.92 254.59 202.06 260.96C200.65 271.42 209.65 273.26 208.86 278.96C207.76 287.02 197.56 288.47 198.23 301.15C198.9 313.83 215.1 324.19 248 321.25C280.9 318.31 296.18 302.96 295.22 292.25C294.26 281.54 282.86 280.25 280.56 272.59C279.09 267.7 284.99 262.89 283.48 253.59C281.97 244.29 272.41 243.17 269.56 235.59C266.71 228.01 267 208.4 253.58 201C240.16 193.6 226.58 197.17 221.5 203.68Z" fill="#263238"/>
<path d="M223 203.67C220.013 206.841 217.838 210.687 216.66 214.88C215.47 219.311 214.799 223.864 214.66 228.45C214.639 231.17 214.303 233.878 213.66 236.52C212.957 238.766 211.86 240.869 210.42 242.73C207.57 246.57 203.9 249.8 201.49 253.97C199.21 257.97 197.81 262.86 199.91 267.19C201.06 269.54 203.1 271.24 204.59 273.35C206.08 275.46 206.93 278 205.42 280.2C204.12 282.09 201.93 283.27 200.37 284.92C198.817 286.534 197.54 288.392 196.59 290.42C195.607 292.434 195.058 294.632 194.979 296.871C194.9 299.111 195.292 301.342 196.13 303.42C200.04 313.05 210.57 316.84 219.96 318.68C221.27 318.94 222.59 319.18 223.9 319.41C224.1 319.41 224.21 319.15 224 319.1C214.51 316.96 203.5 314.43 198.19 305.38C197.003 303.411 196.286 301.195 196.095 298.904C195.904 296.612 196.245 294.308 197.09 292.17C197.939 290.044 199.166 288.09 200.71 286.4C202.2 284.76 204.06 283.56 205.59 281.97C206.361 281.234 206.922 280.306 207.216 279.282C207.509 278.257 207.525 277.173 207.26 276.14C206.67 273.81 205.11 271.99 203.57 270.22C202.03 268.45 200.49 266.43 200.16 263.9C199.948 261.511 200.386 259.109 201.43 256.95C203.37 252.57 206.87 249.25 209.88 245.62C212.89 241.99 215.12 238.01 215.52 233.21C215.72 230.78 215.66 228.34 215.77 225.9C215.86 223.644 216.07 221.394 216.4 219.16C216.982 214.687 218.531 210.394 220.94 206.58C221.587 205.602 222.331 204.69 223.16 203.86C223.23 203.73 223.09 203.57 223 203.67Z" fill="#263238"/>
<path d="M295.08 284.33C294.348 282.701 293.265 281.253 291.91 280.09C290.51 278.9 288.91 277.98 287.41 276.92C285.906 276.004 284.69 274.684 283.9 273.11C283.08 271.11 283.54 268.99 284.15 267.03C284.882 265.012 285.467 262.943 285.9 260.84C286.392 257.678 286.139 254.444 285.159 251.397C284.18 248.35 282.502 245.574 280.26 243.29C278.8 241.71 277.26 240.29 275.75 238.69C274.133 236.992 272.751 235.085 271.64 233.02C269.21 228.46 267.87 223.42 265.7 218.75C263.439 213.974 260.702 209.437 257.53 205.21C257.45 205.11 257.3 205.21 257.38 205.35C260.205 209.178 262.627 213.286 264.61 217.61C266.5 221.71 267.77 226.02 269.41 230.21C270.177 232.281 271.149 234.271 272.31 236.15C273.453 237.872 274.752 239.485 276.19 240.97C279.08 244.07 282.03 247.12 283.48 251.2C284.914 255.211 285.037 259.575 283.83 263.66C282.83 267.2 281.13 271.2 283.36 274.66C285.25 277.57 288.66 278.86 291.2 281.08C292.55 282.313 293.624 283.817 294.353 285.494C295.082 287.17 295.449 288.982 295.43 290.81C295.51 300.17 287.43 306.46 279.03 308.61C278.977 308.623 278.932 308.657 278.903 308.703C278.875 308.75 278.865 308.805 278.877 308.859C278.888 308.912 278.92 308.958 278.966 308.988C279.011 309.019 279.066 309.03 279.12 309.02C286.45 307.45 293.79 302.61 295.85 295.02C296.842 291.475 296.569 287.696 295.08 284.33Z" fill="#263238"/>
<path d="M285.26 350.18H198.86L200.69 340.08L201.07 338.02L202.24 331.62L202.33 331.11L204.33 320.39L204.45 319.72L205.54 313.72V313.62L205.71 312.75L205.87 311.81C205.87 311.81 205.51 311.15 205 310.02C204.9 309.79 204.79 309.55 204.69 309.3C204.27 308.3 203.79 307.04 203.35 305.61C203.09 304.79 202.85 303.91 202.65 302.98C201.92 300.482 201.713 297.861 202.043 295.279C202.374 292.698 203.234 290.213 204.57 287.98C205.27 286.68 206.09 285.31 207.01 283.87C213.94 273.12 226.27 259.66 229.26 256.87C229.57 256.59 229.88 256.3 230.2 256.04C230.866 255.472 231.571 254.95 232.31 254.48C236.94 251.48 242.62 250.33 248.08 252.62C249.469 253.209 250.777 253.976 251.97 254.9C252.25 255.11 252.52 255.33 252.81 255.57C253.1 255.81 253.54 256.21 253.91 256.57C254.42 257.09 254.91 257.63 255.45 258.22C255.541 258.311 255.621 258.412 255.69 258.52C256.11 259 256.53 259.52 256.94 260.06C265.87 271.81 272.94 294.06 277.75 313.54C282.63 333.33 285.26 350.18 285.26 350.18Z" fill="#21F272"/>
<path d="M230.18 256.08C230.18 256.08 226.78 268.08 230.13 268.89C233.48 269.7 241.53 263.71 251.96 254.89C252 254.93 242 244.13 230.18 256.08Z" fill="#D3766A"/>
<path d="M247.9 254.13C247.47 255.51 240.08 264.2 233.65 263.44C231.56 263.19 232.42 251.7 232.42 251.7L232.29 250.84L230.47 238.76L245.07 230.76L247.17 229.76C247.17 229.76 247.45 233.1 247.76 237.26C247.76 237.45 247.76 237.64 247.76 237.85C247.76 238.06 247.76 238.3 247.82 238.52C247.88 239.14 247.93 239.78 247.97 240.41C248.01 241.04 248.03 241.41 248.05 241.87C248.07 242.33 248.05 242.87 248.12 243.38C248.292 246.964 248.218 250.556 247.9 254.13Z" fill="#D3766A"/>
<path d="M247.76 237.24C246.321 240.492 244.192 243.393 241.521 245.742C238.85 248.09 235.7 249.83 232.29 250.84L230.47 238.76L245.07 230.76L247.17 229.76C247.17 229.76 247.45 233.08 247.76 237.24Z" fill="#263238"/>
<path d="M215.62 218.61C212.17 239.77 224.46 244.22 229.02 244.96C233.17 245.63 247.36 247.38 252.97 226.69C258.58 206 249.83 197.69 240.44 195.69C231.05 193.69 219.06 197.45 215.62 218.61Z" fill="#D3766A"/>
<path d="M221.56 215.36C222.053 215.329 222.543 215.272 223.03 215.19C223.558 215.194 224.072 215.029 224.5 214.72C224.614 214.597 224.684 214.44 224.698 214.274C224.713 214.107 224.671 213.94 224.58 213.8C224.359 213.544 224.074 213.353 223.754 213.245C223.433 213.138 223.09 213.119 222.76 213.19C222.071 213.223 221.421 213.516 220.94 214.01C220.835 214.128 220.766 214.273 220.743 214.429C220.719 214.585 220.742 214.745 220.807 214.888C220.873 215.032 220.98 215.153 221.113 215.236C221.247 215.32 221.402 215.363 221.56 215.36Z" fill="#263238"/>
<path d="M235.81 217.38C235.31 217.27 234.87 217.09 234.39 216.94C233.87 216.855 233.392 216.602 233.03 216.22C232.939 216.077 232.899 215.908 232.915 215.74C232.932 215.571 233.004 215.413 233.12 215.29C233.38 215.081 233.691 214.944 234.021 214.893C234.351 214.842 234.689 214.879 235 215C235.668 215.166 236.251 215.572 236.64 216.14C236.727 216.273 236.774 216.429 236.773 216.588C236.772 216.747 236.725 216.903 236.636 217.035C236.547 217.167 236.422 217.271 236.275 217.332C236.128 217.393 235.966 217.41 235.81 217.38Z" fill="#263238"/>
<path d="M232.47 222.5C232.47 222.45 232.57 222.58 232.56 222.64C232.35 224.09 232.35 225.78 233.61 226.41C233.61 226.41 233.61 226.5 233.61 226.49C232 226.08 232 223.84 232.47 222.5Z" fill="#263238"/>
<path d="M233.94 221.14C236.29 221.23 235.94 225.93 233.75 225.84C231.56 225.75 232 221.06 233.94 221.14Z" fill="#263238"/>
<path d="M234.84 221.46C235.23 221.75 235.6 222.25 236.09 222.34C236.58 222.43 237.09 221.98 237.54 221.53C237.54 221.53 237.62 221.53 237.61 221.59C237.56 222.5 237.14 223.39 236.17 223.45C235.2 223.51 234.7 222.67 234.55 221.74C234.52 221.57 234.68 221.34 234.84 221.46Z" fill="#263238"/>
<path d="M223.87 221.27C223.87 221.22 223.75 221.33 223.75 221.39C223.69 222.85 223.39 224.52 222.04 224.91C222.04 224.91 222.04 225 222.04 224.99C223.67 224.87 224.05 222.66 223.87 221.27Z" fill="#263238"/>
<path d="M222.67 219.66C220.34 219.33 219.84 224.01 222 224.32C224.16 224.63 224.63 220 222.67 219.66Z" fill="#263238"/>
<path d="M221.66 219.87C221.26 220.07 220.85 220.49 220.4 220.47C219.95 220.45 219.56 219.9 219.29 219.38C219.29 219.32 219.22 219.38 219.21 219.38C219.09 220.27 219.29 221.24 220.13 221.5C220.97 221.76 221.55 221.04 221.86 220.17C221.92 220.05 221.82 219.78 221.66 219.87Z" fill="#263238"/>
<path d="M230.6 233.6C230.28 233.97 229.97 234.46 229.44 234.6C228.899 234.628 228.358 234.547 227.85 234.36C227.845 234.356 227.839 234.353 227.832 234.352C227.826 234.35 227.819 234.35 227.813 234.35C227.806 234.351 227.8 234.354 227.795 234.357C227.789 234.36 227.784 234.365 227.78 234.37C227.776 234.375 227.773 234.381 227.772 234.388C227.77 234.394 227.77 234.401 227.771 234.407C227.771 234.414 227.774 234.42 227.777 234.425C227.78 234.431 227.785 234.436 227.79 234.44C228.023 234.706 228.323 234.906 228.659 235.018C228.994 235.13 229.353 235.152 229.7 235.08C229.983 234.973 230.229 234.785 230.407 234.54C230.584 234.294 230.686 234.003 230.7 233.7C230.76 233.57 230.64 233.54 230.6 233.6Z" fill="#263238"/>
<path d="M224.87 228C224.87 228 224.38 230.15 224.29 231.17C224.29 231.27 224.53 231.33 224.87 231.38C225.735 231.618 226.649 231.613 227.511 231.366C228.374 231.119 229.152 230.639 229.76 229.98C229.774 229.96 229.78 229.936 229.779 229.912C229.777 229.887 229.768 229.864 229.752 229.846C229.736 229.828 229.714 229.815 229.69 229.811C229.666 229.806 229.642 229.809 229.62 229.82C228.236 230.6 226.635 230.909 225.06 230.7C225.06 230.41 226.06 227.06 225.87 227.03C225.066 227.031 224.266 227.139 223.49 227.35C224.39 222.85 225.99 218.54 226.81 214.04C226.815 214.008 226.808 213.975 226.791 213.947C226.774 213.919 226.748 213.898 226.717 213.887C226.687 213.877 226.653 213.877 226.622 213.888C226.592 213.9 226.566 213.922 226.55 213.95C224.55 218.36 223.41 223.52 222.37 228.14C222.27 228.67 224.45 228.09 224.87 228Z" fill="#263238"/>
<path d="M225.07 231C225.567 231.892 226.283 232.642 227.15 233.18C227.637 233.452 228.195 233.567 228.75 233.51C229.96 233.38 230.14 232.32 230.06 231.37C230.014 230.87 229.91 230.376 229.75 229.9C228.348 230.759 226.708 231.145 225.07 231Z" fill="#263238"/>
<path d="M227.15 233.13C227.637 233.402 228.195 233.517 228.75 233.46C229.96 233.33 230.14 232.27 230.06 231.32C229.442 231.253 228.82 231.395 228.293 231.723C227.766 232.051 227.363 232.547 227.15 233.13Z" fill="#FF9ABB"/>
<path d="M250.78 226.67C245.93 226.07 246.99 218.43 246.99 218.43C246.99 218.43 241.55 217.2 242.33 208.28C242.33 208.28 238.97 213.28 231.33 213.39C229.72 213.39 235.55 210.02 235.55 210.02C235.55 210.02 228.45 214.91 216.98 211.18C216.17 210.91 218.84 197.42 228.63 194.42C238.42 191.42 247.16 196.24 252.09 202.81C252.09 202.81 258.44 206.81 258.35 213.33C258.26 219.85 252.67 226.9 250.78 226.67Z" fill="#263238"/>
<path d="M241.93 223.33C241.76 222.011 241.214 220.769 240.357 219.751C239.501 218.733 238.37 217.983 237.1 217.59C236.78 217.5 236.45 217.43 236.1 217.37C235.911 217.34 235.721 217.32 235.53 217.31H235.06C233.651 217.308 232.275 217.736 231.116 218.537C229.956 219.337 229.068 220.472 228.57 221.79C228.57 221.93 228.47 222.06 228.43 222.2C228.39 222.34 228.32 222.58 228.28 222.77C227.918 224.464 228.205 226.232 229.082 227.726C229.959 229.22 231.364 230.331 233.02 230.84C233.569 231.008 234.137 231.109 234.71 231.14C236.245 231.211 237.761 230.77 239.019 229.887C240.276 229.004 241.205 227.728 241.66 226.26C241.858 225.612 241.96 224.938 241.96 224.26C241.97 223.95 241.96 223.639 241.93 223.33ZM240.81 226C240.481 227.074 239.858 228.034 239.01 228.771C238.163 229.508 237.125 229.992 236.016 230.168C234.907 230.345 233.771 230.207 232.736 229.769C231.702 229.332 230.811 228.613 230.165 227.694C229.519 226.776 229.144 225.694 229.082 224.573C229.02 223.452 229.275 222.335 229.816 221.351C230.357 220.367 231.164 219.555 232.144 219.007C233.124 218.458 234.238 218.196 235.36 218.25C235.86 218.273 236.355 218.363 236.83 218.52C238.348 218.986 239.62 220.035 240.366 221.437C241.112 222.839 241.272 224.48 240.81 226Z" fill="#21F272"/>
<path d="M224.74 218.86C224.626 218.351 224.451 217.858 224.22 217.39C223.805 216.53 223.161 215.8 222.36 215.28C221.921 215.005 221.431 214.822 220.92 214.74H220.75C220.047 214.672 219.338 214.769 218.678 215.022C218.019 215.276 217.427 215.679 216.95 216.2C216.61 216.532 216.309 216.901 216.05 217.3C215.959 217.425 215.875 217.555 215.8 217.69C215.274 218.62 214.915 219.636 214.74 220.69C214.521 221.962 214.589 223.267 214.94 224.51C214.94 224.65 215.02 224.78 215.06 224.92C215.155 225.181 215.269 225.435 215.4 225.68C215.509 225.911 215.633 226.135 215.77 226.35C216.092 226.867 216.518 227.311 217.021 227.656C217.523 228 218.092 228.236 218.69 228.35C218.839 228.377 218.989 228.394 219.14 228.4C219.815 228.412 220.484 228.278 221.102 228.007C221.72 227.736 222.272 227.334 222.72 226.83C223.307 226.233 223.787 225.539 224.14 224.78C224.5 224.022 224.753 223.218 224.89 222.39C224.89 222.23 224.89 222.07 224.89 221.93C224.89 221.79 224.89 221.72 224.89 221.62C224.89 221.36 224.89 221.11 224.89 220.86C224.922 220.19 224.872 219.518 224.74 218.86ZM223.95 222.25C223.932 222.402 223.901 222.552 223.86 222.7C223.867 222.736 223.867 222.774 223.86 222.81C223.768 223.212 223.645 223.607 223.49 223.99C223.41 224.18 223.33 224.36 223.24 224.53C222.24 226.53 220.53 227.73 218.82 227.45C218.089 227.282 217.42 226.911 216.89 226.38C216.359 225.85 215.988 225.181 215.82 224.45C215.471 223.297 215.396 222.078 215.6 220.89C215.758 219.96 216.072 219.064 216.53 218.24C216.815 217.737 217.168 217.276 217.58 216.87C217.94 216.479 218.378 216.166 218.865 215.953C219.352 215.739 219.878 215.629 220.41 215.63H220.75C221.329 215.753 221.87 216.014 222.328 216.39C222.786 216.765 223.147 217.246 223.38 217.79C223.885 218.856 224.112 220.033 224.04 221.21C224.057 221.557 224.044 221.905 224 222.25H223.95Z" fill="#21F272"/>
<path d="M228.56 223L229.26 222.4C228.37 221.4 226.17 219.79 224.26 221.3L224.82 222.03C226.53 220.69 228.47 222.92 228.56 223Z" fill="#21F272"/>
<path d="M258.66 229.82L259.54 229.54C259.41 229.13 258.19 225.54 256.21 224.84C254.23 224.14 241.94 223.33 241.41 223.3L241.35 224.22C244.91 224.47 254.48 225.22 255.91 225.72C257.34 226.22 258.34 228.83 258.66 229.82Z" fill="#21F272"/>
<path d="M247.87 227.69C247.87 227.69 253.03 221.37 255.94 223.26C258.85 225.15 254.61 234.56 250.94 235.62C250.48 235.786 249.992 235.857 249.504 235.83C249.016 235.803 248.538 235.678 248.1 235.463C247.661 235.247 247.27 234.945 246.951 234.575C246.631 234.206 246.39 233.775 246.24 233.31L247.87 227.69Z" fill="#D3766A"/>
<path d="M254.66 225.92C254.71 225.92 254.72 226 254.66 226.02C252.09 226.84 250.6 229.02 249.51 231.38C249.674 231.146 249.886 230.949 250.132 230.804C250.378 230.658 250.653 230.567 250.937 230.537C251.221 230.507 251.509 230.538 251.78 230.628C252.052 230.718 252.3 230.865 252.51 231.06C252.57 231.11 252.51 231.21 252.44 231.19C252.012 231.019 251.541 230.984 251.092 231.09C250.643 231.195 250.237 231.436 249.93 231.78C249.424 232.365 248.981 233.002 248.61 233.68C248.48 233.89 248.08 233.74 248.19 233.49C248.186 233.47 248.186 233.45 248.19 233.43C248.42 230.25 251.22 226 254.66 225.92Z" fill="#263238"/>
<path d="M205.754 283.428L201.552 343.458L247.672 346.687L251.874 286.657L205.754 283.428Z" fill="#37474F"/>
<path d="M216.502 288.138L238.311 289.625L238.761 283.02L216.952 281.533L216.502 288.138Z" fill="#A6A6A6"/>
<path d="M221.9 281.88L224.59 282.06L224.79 279.02L231.32 279.46L231.11 282.51L233.8 282.69L234.18 277.14L222.24 276.33L221.9 281.88Z" fill="#A6A6A6"/>
<path d="M294.19 350.18H247.19C244.19 349.49 241.27 348.76 238.68 348.06C236.97 347.6 235.39 347.15 233.96 346.72L232.09 346.12C231.921 346.064 231.774 345.955 231.67 345.81C229.84 343.49 233.73 330.13 237.77 321.74C239.77 317.69 241.72 314.8 243.11 314.88C243.193 314.87 243.277 314.87 243.36 314.88C244.07 315.12 244.95 315.39 245.93 315.66L248.78 316.44C252.99 317.55 257.92 318.71 260.62 319.31C261.74 319.55 262.46 319.7 262.62 319.7C262.78 319.7 262.75 319.41 262.69 318.84C262.59 317.78 262.2 315.77 261.63 313.11C261.635 313.08 261.635 313.05 261.63 313.02C259.2 301.75 253.48 279.17 251.39 268.84C249.33 258.71 250.82 255.66 253.91 256.54C256.78 257.36 261.03 261.59 265.08 266.64C273.48 277.11 280.92 291.46 286.31 305.51C286.38 305.72 286.47 305.94 286.55 306.15C286.72 306.59 286.89 307.05 287.05 307.49C293.66 325.45 296.83 342.57 294.19 350.18Z" fill="#D3766A"/>
<path d="M201.47 304C199.32 306.8 201.41 309.79 201.41 309.79C199.767 310.41 198.391 311.584 197.52 313.11C196.11 315.87 199.82 319.29 199.82 319.29C198.248 320.287 197.011 321.732 196.27 323.44C195.19 326.22 198.45 330.2 198.45 330.2C197.511 331.914 197.22 333.909 197.63 335.82C198.93 340.88 206.53 343.3 211.35 344.88C216.17 346.46 231.35 346.44 234.21 346.73L244.64 315.89C244.64 315.89 225.05 302.64 219.12 301.58C214.12 300.7 203.89 300.88 201.47 304Z" fill="#D3766A"/>
<path d="M201.79 309.38C207.33 309.05 212.67 310.38 218.07 311.38C218.09 311.387 218.107 311.399 218.12 311.416C218.132 311.433 218.139 311.454 218.139 311.475C218.139 311.496 218.132 311.517 218.12 311.534C218.107 311.551 218.09 311.563 218.07 311.57C212.71 310.49 207.21 310.49 201.82 309.62C201.795 309.613 201.772 309.6 201.755 309.58C201.737 309.56 201.727 309.536 201.723 309.51C201.72 309.484 201.725 309.458 201.737 309.435C201.748 309.412 201.767 309.392 201.79 309.38Z" fill="#263238"/>
<path d="M200.06 318.93C201.326 318.975 202.58 319.187 203.79 319.56C205.09 319.88 206.39 320.22 207.68 320.56C210.27 321.28 212.84 322.05 215.38 322.91C215.5 322.91 215.47 323.12 215.38 323.09C212.8 322.38 210.21 321.71 207.6 321.09C206.3 320.79 204.99 320.5 203.68 320.22C202.426 320.024 201.199 319.689 200.02 319.22C200.001 319.199 199.987 319.175 199.979 319.148C199.97 319.121 199.968 319.093 199.972 319.066C199.976 319.038 199.985 319.011 200.001 318.988C200.016 318.964 200.036 318.945 200.06 318.93Z" fill="#263238"/>
<path d="M198.56 330.24C199.701 330.301 200.824 330.555 201.88 330.99C203.06 331.34 204.23 331.69 205.4 331.99C207.76 332.67 210.11 333.34 212.48 333.99C212.504 333.99 212.527 333.999 212.544 334.016C212.561 334.033 212.57 334.056 212.57 334.08C212.57 334.104 212.561 334.127 212.544 334.144C212.527 334.161 212.504 334.17 212.48 334.17C210.07 333.58 207.65 333.03 205.24 332.41C204.05 332.11 202.87 331.81 201.69 331.49C200.588 331.311 199.528 330.935 198.56 330.38C198.541 330.38 198.524 330.373 198.51 330.359C198.497 330.346 198.49 330.329 198.49 330.31C198.49 330.291 198.497 330.274 198.51 330.26C198.524 330.247 198.541 330.24 198.56 330.24Z" fill="#263238"/>
<path d="M295.59 350.18H241.45C239.9 349.81 238.92 349.55 238.55 349.45L238.38 349.4L238.69 348.06L239.07 346.33L244.64 321.5L245.94 315.7L246 315.45V315.38L248.81 316.06C253.16 317.06 261.07 318.89 261.43 318.62C261.498 318.558 261.546 318.478 261.57 318.39C261.575 318.353 261.575 318.316 261.57 318.28C262.11 315.71 257.77 299.89 254.22 285.28C252.53 278.36 251.02 271.7 250.29 266.88C249.14 259.3 250.2 255.74 252.76 255.59C255.47 255.42 259.87 259.12 265.12 265.97C274.059 278.026 281.366 291.21 286.85 305.18C286.93 305.4 287.02 305.62 287.11 305.84C287.26 306.24 287.42 306.62 287.56 307.02C291.71 317.97 294.82 329.83 295.56 341.64C295.84 344.89 296.14 347.81 295.59 350.18Z" fill="#21F272"/>
<path d="M246.09 349.76C250.01 336.38 252.09 321.76 252.66 319.19C252.653 319.17 252.641 319.153 252.624 319.14C252.607 319.128 252.586 319.121 252.565 319.121C252.544 319.121 252.523 319.128 252.506 319.14C252.489 319.153 252.477 319.17 252.47 319.19C252.06 321.7 247.85 338.19 245.88 349.75C245.85 349.87 246.05 349.89 246.09 349.76Z" fill="#263238"/>
<path d="M277.77 322.69C276.468 322.194 275.131 321.796 273.77 321.5C272.51 321.17 271.25 320.81 269.99 320.5L268.36 320.07H268.52L270.77 319.94C271.52 319.89 272.27 319.78 273.02 319.79C273.14 319.79 273.15 319.59 273.02 319.6C272.27 319.6 271.53 319.6 270.78 319.55C270.03 319.5 269.23 319.55 268.45 319.55C267.67 319.55 267.09 319.55 266.45 319.55C265.23 319.24 264.01 318.94 262.79 318.66C262.45 316.18 261.79 313.66 261.25 311.24C260.71 308.82 260.08 306.13 259.43 303.58C258.78 301.03 258.12 298.58 257.38 296.13C257.01 294.89 255.12 287.33 254.46 285.34C254.46 285.22 254.26 285.26 254.29 285.41C254.6 287.41 256.53 295.15 256.8 296.41C257 297.32 257.2 298.23 257.41 299.15L257.31 299L255.99 296.89C255.08 295.47 254.242 294.005 253.48 292.5C253.42 292.37 253.22 292.5 253.28 292.6C253.97 294.17 254.63 295.75 255.38 297.29C255.76 298.06 256.15 298.82 256.57 299.56C256.951 300.31 257.41 301.017 257.94 301.67C258.11 302.42 258.27 303.17 258.44 303.92C259 306.43 259.57 308.92 260.13 311.45C260.64 313.75 261.05 316.11 261.66 318.39C259.16 317.83 256.66 317.32 254.12 316.8C252.84 316.53 251.55 316.27 250.27 316.02C248.99 315.77 247.43 315.62 246.09 315.26C245.97 315.26 245.91 315.42 246.02 315.44C247.38 315.71 248.73 316.25 250.02 316.6L253.8 317.6C256.47 318.29 259.14 318.99 261.8 319.6C264.46 320.21 267.12 320.77 269.8 321.31L273.8 322.1C275.089 322.418 276.399 322.642 277.72 322.77C277.737 322.765 277.751 322.754 277.761 322.74C277.77 322.725 277.773 322.707 277.77 322.69Z" fill="#263238"/>
<path d="M242.28 350.18H240.62C239.62 349.88 238.94 349.69 238.62 349.6C238.603 349.599 238.587 349.593 238.574 349.583C238.56 349.573 238.55 349.559 238.543 349.544C238.537 349.528 238.535 349.511 238.538 349.494C238.541 349.478 238.549 349.462 238.56 349.45C238.56 349.45 238.56 349.45 238.65 349.45C239.72 349.66 240.94 349.92 242.28 350.18Z" fill="#263238"/>
<path d="M97.57 358.1C96.486 362.052 95.7697 366.096 95.43 370.18C95.54 370.38 95.52 371.13 95.43 370.92C95.43 371.59 94.43 371.47 94.43 370.81C94.43 370.38 94.43 369.96 94.43 369.54C92.07 366.61 88.64 364.76 85.87 362.21C83.6392 360.211 82.0143 357.627 81.18 354.75C78.89 346.84 81.04 338.45 78.28 330.56C75.9 323.75 71.63 317.83 68.01 311.66C64.2 305.14 61.38 298.29 61.1 290.66C60.87 284.81 61.57 277.01 66.03 272.66C70.75 268.01 76.6 271.5 80.22 275.66C90.71 287.66 95.56 302.9 97.52 318.45C98.6 327.05 99.72 335.71 99.46 344.4C99.2838 349.018 98.6507 353.607 97.57 358.1Z" fill="#21F272"/>
<path d="M95.48 373.34C96.0464 365.232 95.9494 357.092 95.19 349C95.19 349 95.19 349 95.19 348.91C95.32 342.32 95.84 335.76 95.59 329.16C95.2672 322.026 94.2932 314.937 92.68 307.98C92.68 307.9 92.54 307.92 92.56 307.98C93.8419 314.816 94.6074 321.739 94.85 328.69C94.98 332.42 94.96 336.14 94.76 339.86C94.7 341.07 94.58 342.29 94.5 343.51C91.7585 325.012 85.0743 307.32 74.9 291.63C74.76 291.42 74.38 291.63 74.51 291.87C81.7951 303.788 87.1923 316.761 90.51 330.33C85.51 320.99 77.86 313.33 72.21 304.33C72.21 304.28 72.09 304.33 72.12 304.38C77.2 314.38 85.58 322.25 90.92 332.1C91.8466 336.1 92.6 340.143 93.18 344.23C93.9322 349.82 94.3363 355.45 94.39 361.09C91.32 355.35 88.13 349.86 85.62 343.79C85.55 343.63 85.32 343.79 85.38 343.9C87.51 350.21 90.38 357 94.38 362.38C94.38 366.38 94.28 370.38 94.05 374.38C93.42 385.02 91.6 395.52 90.76 406.13C90.7642 406.189 90.7889 406.244 90.8299 406.286C90.8709 406.329 90.9254 406.355 90.984 406.361C91.0425 406.367 91.1013 406.352 91.1499 406.319C91.1986 406.286 91.234 406.237 91.25 406.18C93.4014 395.342 94.8146 384.37 95.48 373.34Z" fill="#263238"/>
<path d="M84.17 291.26C84.17 291.18 84.03 291.26 84.06 291.31C86 296.69 87.06 302.14 88.5 307.65C88.5093 307.703 88.5393 307.75 88.5833 307.781C88.6274 307.812 88.682 307.824 88.735 307.815C88.788 307.806 88.8352 307.776 88.8662 307.732C88.8971 307.688 88.9093 307.633 88.9 307.58C88.33 302 86.34 296.41 84.17 291.26Z" fill="#263238"/>
<path d="M133.54 313.79C132.242 316.94 130.75 320.006 129.07 322.97C125.57 329.33 121.91 335.16 121.25 342.56C120.96 345.86 120.85 349.18 119.85 352.37C118.926 355.106 117.609 357.693 115.94 360.05C112.14 365.57 107.4 370.34 103.94 376.05C100.285 382.032 97.5863 388.546 95.94 395.36C95.85 395.73 95.26 395.63 95.35 395.26C95.3607 395.231 95.3607 395.199 95.35 395.17C95.3453 395.159 95.3429 395.147 95.3429 395.135C95.3429 395.123 95.3453 395.111 95.35 395.1C94.79 379.23 96.06 363.23 100.9 348.03C103.041 341.345 105.609 334.805 108.59 328.45C111.18 322.93 114.42 317.63 118.97 313.51C121.92 310.85 128.33 305.81 132.53 308.51C134.48 309.78 134.33 311.81 133.54 313.79Z" fill="#21F272"/>
<path d="M118.26 343C114.78 347.461 111.764 352.266 109.26 357.34C109.26 357.41 109.33 357.48 109.37 357.41C112.37 352.65 115.37 347.86 118.42 343.09C118.45 343 118.32 342.91 118.26 343Z" fill="#263238"/>
<path d="M50.7 328.84C52.76 332.38 55.11 336.63 54.22 340.89C53.66 343.58 51.69 345.77 51.34 348.51C50.54 354.57 56.58 358.58 60.95 361.44C71.85 368.59 86.8 374.97 88.78 389.57C88.85 390.09 89.78 389.96 89.68 389.45C89.6847 389.42 89.6847 389.39 89.68 389.36C89.68 389.36 89.74 389.31 89.74 389.27C91.1658 381.898 91.0944 374.314 89.53 366.97C87.91 359.44 84.62 352.68 80.75 346.07C74.19 334.88 67.24 323.42 57.32 314.85C54.58 312.48 48.96 308.22 46.77 313.57C44.58 318.92 48.18 324.52 50.7 328.84Z" fill="#21F272"/>
<path d="M60.68 352.56C67.9 360.38 79.39 364.77 85.61 373.56C82.1345 360.224 75.5712 347.892 66.45 337.56C66.4041 337.506 66.3805 337.436 66.3838 337.366C66.3872 337.295 66.4173 337.228 66.468 337.178C66.5188 337.129 66.5865 337.101 66.6574 337.099C66.7283 337.097 66.7971 337.123 66.85 337.17C73.4934 343.624 78.81 351.315 82.5 359.81C80.7858 353.869 78.5296 348.098 75.76 342.57C75.66 342.36 75.96 342.18 76.08 342.38C79.5123 348.419 81.9661 354.963 83.35 361.77C91.54 381.61 92.35 404.87 90.59 425.77C90.59 426.06 90.11 426.07 90.11 425.77C90.59 409.29 90.32 392.52 86.37 376.43C86.29 376.09 86.2 375.76 86.11 375.43C79.34 366 67.91 361.63 60.55 352.67C60.48 352.6 60.6 352.47 60.68 352.56Z" fill="#263238"/>
<path d="M59 345.84C62.8 349.32 66.53 352.84 70.33 356.36C70.33 356.36 70.33 356.46 70.27 356.43C65.9775 353.527 62.1104 350.04 58.78 346.07C58.65 345.91 58.85 345.7 59 345.84Z" fill="#263238"/>
<path d="M58.4 330.76C61.7549 336.262 65.5507 341.482 69.75 346.37C69.81 346.44 69.75 346.53 69.66 346.47C64.9475 341.992 61.0673 336.714 58.2 330.88C58.14 330.75 58.32 330.63 58.4 330.76Z" fill="#263238"/>
<path d="M75.48 440.53H108.7L104.23 395.83H80.6L75.48 440.53Z" fill="#455A64"/>
<path d="M79.76 403.1H104.96L104.23 395.83H80.59L79.76 403.1Z" fill="#263238"/>
<path d="M76.52 398.02H107.66V390.88H76.52V398.02Z" fill="#455A64"/>
</svg>
